<?xml version="1.0" encoding="utf-8"?>
<!-- Generator: Adobe Illustrator 25.2.3, SVG Export Plug-In . SVG Version: 6.00 Build 0)  -->
<!DOCTYPE svg PUBLIC "-//W3C//DTD SVG 1.1//EN" "http://www.w3.org/Graphics/SVG/1.1/DTD/svg11.dtd" [
	<!ENTITY ns_extend "http://ns.adobe.com/Extensibility/1.0/">
	<!ENTITY ns_ai "http://ns.adobe.com/AdobeIllustrator/10.0/">
	<!ENTITY ns_graphs "http://ns.adobe.com/Graphs/1.0/">
	<!ENTITY ns_vars "http://ns.adobe.com/Variables/1.0/">
	<!ENTITY ns_imrep "http://ns.adobe.com/ImageReplacement/1.0/">
	<!ENTITY ns_sfw "http://ns.adobe.com/SaveForWeb/1.0/">
	<!ENTITY ns_custom "http://ns.adobe.com/GenericCustomNamespace/1.0/">
	<!ENTITY ns_adobe_xpath "http://ns.adobe.com/XPath/1.0/">
]>
<svg version="1.1" id="Default" xmlns:x="&ns_extend;" xmlns:i="&ns_ai;" xmlns:graph="&ns_graphs;"
	 xmlns="http://www.w3.org/2000/svg" xmlns:xlink="http://www.w3.org/1999/xlink" x="0px" y="0px" viewBox="0 0 483 172"
	 style="enable-background:new 0 0 483 172;" xml:space="preserve">
<style type="text/css">
	.st0{fill:none;enable-background:new    ;}
	.st1{fill:none;stroke:#000000;stroke-width:3;}
	.st2{fill:none;stroke:#000000;stroke-width:1.5;}
	.st3{fill:#FFFFFF;stroke:#000000;stroke-width:1.5;}
	.st4{enable-background:new    ;}
	.st5{fill:#F70000;}
	.st6{fill:#63C100;}
	.st7{fill:none;stroke:#000000;stroke-width:1.5;enable-background:new    ;}
	.st8{fill:none;stroke:#000000;stroke-width:1.5;stroke-miterlimit:10;}
</style>
<metadata>
	<sfw  xmlns="&ns_sfw;">
		<slices></slices>
		<sliceSourceBounds  bottomLeftOrigin="true" height="209.15" width="487.11" x="-3.24" y="29.89"></sliceSourceBounds>
	</sfw>
</metadata>
<path class="st0" d="M-3.24-6.51"/>
<polygon class="st1" points="68.81,1.5 389.01,1.5 389.01,169.61 52.8,169.61 52.8,17.51 "/>
<polyline class="st2" points="8.77,41.52 0.76,41.52 0.76,129.58 8.77,129.58 "/>
<polyline class="st2" points="445.04,41.52 453.05,41.52 453.05,129.58 445.04,129.58 "/>
<rect x="381" y="113.57" class="st3" width="16.01" height="16.01"/>
<rect x="381" y="41.52" class="st3" width="16.01" height="16.01"/>
<rect x="381" y="65.54" class="st3" width="16.01" height="16.01"/>
<rect x="381" y="89.55" class="st3" width="16.01" height="16.01"/>
<rect x="381" y="137.59" class="st3" width="16.01" height="16.01"/>
<rect x="381" y="17.51" class="st3" width="16.01" height="16.01"/>
<g class="st4">
	<path d="M387.03,29.52h-1.48v-5.59c-0.54,0.51-1.18,0.88-1.92,1.12v-1.35c0.39-0.13,0.81-0.37,1.26-0.72
		c0.45-0.35,0.76-0.77,0.93-1.24h1.2V29.52z"/>
	<path d="M394.25,28.14v1.38h-5.2c0.06-0.52,0.22-1.01,0.51-1.48c0.28-0.47,0.84-1.08,1.67-1.85c0.67-0.62,1.08-1.04,1.23-1.27
		c0.2-0.31,0.31-0.61,0.31-0.91c0-0.33-0.09-0.58-0.27-0.76s-0.42-0.27-0.74-0.27c-0.31,0-0.56,0.09-0.74,0.28s-0.29,0.5-0.32,0.93
		l-1.48-0.15c0.09-0.82,0.36-1.4,0.83-1.76c0.46-0.36,1.04-0.53,1.74-0.53c0.76,0,1.36,0.21,1.8,0.62s0.65,0.92,0.65,1.54
		c0,0.35-0.06,0.68-0.19,0.99c-0.12,0.31-0.32,0.64-0.59,0.99c-0.18,0.23-0.5,0.56-0.97,0.99s-0.76,0.71-0.89,0.85
		c-0.12,0.14-0.23,0.28-0.3,0.41H394.25z"/>
</g>
<g class="st4">
	<path d="M387.34,53.53h-1.48v-5.59c-0.54,0.51-1.18,0.88-1.92,1.12v-1.35c0.39-0.13,0.81-0.37,1.26-0.72
		c0.45-0.35,0.76-0.77,0.93-1.24h1.2V53.53z"/>
	<path d="M392.75,53.53h-1.48v-5.59c-0.54,0.51-1.18,0.88-1.92,1.12v-1.35c0.39-0.13,0.81-0.37,1.26-0.72
		c0.45-0.35,0.76-0.77,0.93-1.24h1.2V53.53z"/>
</g>
<g class="st4">
	<path d="M387.03,77.55h-1.48v-5.59c-0.54,0.51-1.18,0.88-1.92,1.12v-1.35c0.39-0.13,0.81-0.37,1.26-0.72
		c0.45-0.35,0.76-0.77,0.93-1.24h1.2V77.55z"/>
	<path d="M391.75,69.78c0.75,0,1.33,0.27,1.76,0.8c0.5,0.63,0.75,1.68,0.75,3.15c0,1.46-0.25,2.52-0.76,3.16
		c-0.42,0.53-1,0.79-1.75,0.79c-0.75,0-1.36-0.29-1.82-0.87c-0.46-0.58-0.69-1.61-0.69-3.09c0-1.46,0.25-2.5,0.76-3.15
		C390.42,70.04,391,69.78,391.75,69.78z M391.75,71.01c-0.18,0-0.34,0.06-0.48,0.17s-0.25,0.32-0.33,0.61
		c-0.1,0.38-0.15,1.03-0.15,1.94c0,0.91,0.05,1.53,0.14,1.87c0.09,0.34,0.21,0.57,0.35,0.68c0.14,0.11,0.3,0.17,0.48,0.17
		c0.18,0,0.34-0.06,0.48-0.17s0.25-0.32,0.33-0.61c0.1-0.38,0.15-1.02,0.15-1.93c0-0.91-0.05-1.53-0.14-1.87
		c-0.09-0.34-0.21-0.57-0.35-0.68C392.09,71.07,391.93,71.01,391.75,71.01z"/>
</g>
<g class="st4">
	<path d="M386.38,99.77l1.43-0.16c0.04,0.29,0.13,0.51,0.27,0.65c0.15,0.14,0.34,0.21,0.59,0.21c0.31,0,0.57-0.14,0.78-0.42
		c0.21-0.28,0.35-0.87,0.41-1.75c-0.37,0.43-0.84,0.65-1.4,0.65c-0.61,0-1.13-0.23-1.58-0.7s-0.66-1.08-0.66-1.83
		c0-0.78,0.23-1.42,0.7-1.9c0.47-0.48,1.06-0.72,1.78-0.72c0.78,0,1.43,0.3,1.93,0.91c0.5,0.61,0.75,1.61,0.75,3
		c0,1.41-0.26,2.43-0.79,3.06s-1.21,0.94-2.05,0.94c-0.61,0-1.09-0.16-1.47-0.48C386.73,100.89,386.49,100.41,386.38,99.77z
		 M389.74,96.53c0-0.48-0.11-0.85-0.33-1.11c-0.22-0.26-0.47-0.4-0.76-0.4c-0.27,0-0.5,0.11-0.68,0.32
		c-0.18,0.22-0.27,0.57-0.27,1.06c0,0.5,0.1,0.87,0.29,1.1c0.2,0.23,0.44,0.35,0.74,0.35c0.28,0,0.52-0.11,0.72-0.34
		C389.64,97.3,389.74,96.97,389.74,96.53z"/>
</g>
<g class="st4">
	<path d="M387.62,121.4c-0.38-0.16-0.66-0.38-0.84-0.67s-0.26-0.59-0.26-0.93c0-0.58,0.2-1.05,0.6-1.43
		c0.4-0.38,0.98-0.56,1.72-0.56c0.74,0,1.31,0.19,1.71,0.56c0.41,0.38,0.61,0.85,0.61,1.43c0,0.36-0.09,0.68-0.28,0.96
		c-0.19,0.28-0.45,0.49-0.79,0.64c0.43,0.17,0.75,0.42,0.98,0.75c0.22,0.33,0.33,0.71,0.33,1.14c0,0.71-0.23,1.29-0.68,1.74
		c-0.46,0.45-1.06,0.67-1.82,0.67c-0.7,0-1.29-0.18-1.76-0.55c-0.55-0.44-0.83-1.03-0.83-1.79c0-0.42,0.1-0.8,0.31-1.15
		C386.85,121.86,387.18,121.59,387.62,121.4z M387.79,123.22c0,0.41,0.1,0.73,0.31,0.96c0.21,0.23,0.47,0.34,0.78,0.34
		c0.31,0,0.56-0.11,0.76-0.33c0.2-0.22,0.3-0.54,0.3-0.95c0-0.36-0.1-0.65-0.31-0.87s-0.46-0.33-0.78-0.33
		c-0.36,0-0.63,0.12-0.81,0.38S387.79,122.93,387.79,123.22z M387.93,119.91c0,0.29,0.08,0.53,0.25,0.69
		c0.17,0.17,0.39,0.25,0.67,0.25c0.28,0,0.51-0.08,0.68-0.25c0.17-0.17,0.25-0.4,0.25-0.69c0-0.28-0.08-0.5-0.25-0.67
		s-0.39-0.25-0.66-0.25c-0.29,0-0.51,0.08-0.68,0.25C388.01,119.41,387.93,119.63,387.93,119.91z"/>
</g>
<g class="st4">
	<path d="M386.35,143.34v-1.38h5.07v1.08c-0.42,0.41-0.84,1-1.28,1.77c-0.43,0.77-0.76,1.59-0.99,2.46s-0.34,1.64-0.33,2.32h-1.43
		c0.02-1.07,0.25-2.16,0.66-3.27s0.97-2.11,1.67-2.98H386.35z"/>
</g>
<g class="st4">
	<path d="M405.85,53.53v-7.67h1.56v6.37h3.88v1.3H405.85z"/>
	<path d="M412.36,53.53V45.8h1.56v7.74H412.36z"/>
	<path d="M415.42,53.53V45.8h1.52l3.17,5.17V45.8h1.45v7.74H420l-3.12-5.04v5.04H415.42z"/>
	<path d="M423.21,53.53V45.8h5.74v1.31h-4.17v1.72h3.88v1.3h-3.88v2.11h4.32v1.3H423.21z"/>
	<path d="M440,53.53h-1.7l-0.68-1.76h-3.09l-0.64,1.76h-1.66l3.01-7.74h1.65L440,53.53z M437.12,50.47l-1.07-2.87l-1.04,2.87H437.12
		z"/>
</g>
<g class="st4">
	<path d="M405.85,77.55v-7.67h1.56v6.37h3.88v1.3H405.85z"/>
	<path d="M412.36,77.55v-7.74h1.56v7.74H412.36z"/>
	<path d="M415.42,77.55v-7.74h1.52l3.17,5.17v-5.17h1.45v7.74H420l-3.12-5.04v5.04H415.42z"/>
	<path d="M423.21,77.55v-7.74h5.74v1.31h-4.17v1.72h3.88v1.3h-3.88v2.11h4.32v1.3H423.21z"/>
	<path d="M433.43,69.81h3.09c0.61,0,1.07,0.03,1.37,0.08s0.57,0.16,0.81,0.32c0.24,0.16,0.44,0.38,0.59,0.65
		c0.16,0.27,0.24,0.57,0.24,0.9c0,0.36-0.1,0.69-0.29,1c-0.2,0.3-0.46,0.53-0.79,0.68c0.47,0.14,0.83,0.37,1.09,0.7
		c0.25,0.33,0.38,0.72,0.38,1.17c0,0.35-0.08,0.69-0.25,1.03c-0.16,0.33-0.39,0.6-0.67,0.8s-0.63,0.32-1.05,0.37
		c-0.26,0.03-0.89,0.05-1.88,0.05h-2.63V69.81z M434.99,71.1v1.79h1.02c0.61,0,0.99-0.01,1.13-0.03c0.27-0.03,0.48-0.12,0.63-0.28
		c0.15-0.15,0.23-0.35,0.23-0.6c0-0.24-0.07-0.43-0.2-0.58s-0.33-0.24-0.59-0.27c-0.16-0.02-0.6-0.03-1.34-0.03H434.99z
		 M434.99,74.18v2.07h1.45c0.56,0,0.92-0.02,1.07-0.05c0.23-0.04,0.42-0.15,0.57-0.31c0.15-0.16,0.22-0.38,0.22-0.66
		c0-0.23-0.06-0.43-0.17-0.59c-0.11-0.16-0.28-0.28-0.49-0.35c-0.21-0.07-0.67-0.11-1.39-0.11H434.99z"/>
</g>
<g class="st4">
	<path d="M405.85,101.56v-7.67h1.56v6.37h3.88v1.3H405.85z"/>
	<path d="M412.36,101.56v-7.74h1.56v7.74H412.36z"/>
	<path d="M415.42,101.56v-7.74h1.52l3.17,5.17v-5.17h1.45v7.74H420l-3.12-5.04v5.04H415.42z"/>
	<path d="M423.21,101.56v-7.74h5.74v1.31h-4.17v1.71h3.88v1.3h-3.88v2.11h4.32v1.3H423.21z"/>
	<path d="M438.37,98.72l1.51,0.48c-0.23,0.84-0.62,1.47-1.16,1.88c-0.54,0.41-1.22,0.61-2.05,0.61c-1.03,0-1.87-0.35-2.53-1.05
		s-0.99-1.66-0.99-2.88c0-1.29,0.33-2.29,1-3c0.67-0.71,1.54-1.07,2.62-1.07c0.95,0,1.71,0.28,2.31,0.84
		c0.35,0.33,0.62,0.81,0.79,1.42l-1.55,0.37c-0.09-0.4-0.28-0.72-0.57-0.95s-0.64-0.35-1.06-0.35c-0.57,0-1.04,0.21-1.4,0.62
		c-0.36,0.41-0.54,1.08-0.54,2c0,0.98,0.18,1.67,0.53,2.09c0.35,0.42,0.81,0.62,1.37,0.62c0.42,0,0.77-0.13,1.07-0.4
		S438.24,99.28,438.37,98.72z"/>
</g>
<g class="st4">
	<path d="M405.85,125.58v-7.67h1.56v6.37h3.88v1.3H405.85z"/>
	<path d="M412.36,125.58v-7.74h1.56v7.74H412.36z"/>
	<path d="M415.42,125.58v-7.74h1.52l3.17,5.17v-5.17h1.45v7.74H420l-3.12-5.04v5.04H415.42z"/>
	<path d="M423.21,125.58v-7.74h5.74v1.31h-4.17v1.71h3.88v1.3h-3.88v2.11h4.32v1.3H423.21z"/>
	<path d="M433.42,117.84h2.85c0.64,0,1.13,0.05,1.47,0.15c0.45,0.13,0.84,0.37,1.17,0.71c0.32,0.34,0.57,0.76,0.74,1.25
		s0.25,1.1,0.25,1.83c0,0.64-0.08,1.19-0.24,1.65c-0.19,0.56-0.47,1.02-0.83,1.37c-0.27,0.26-0.64,0.47-1.1,0.62
		c-0.34,0.11-0.81,0.16-1.38,0.16h-2.94V117.84z M434.98,119.15v5.12h1.17c0.44,0,0.75-0.02,0.94-0.07
		c0.25-0.06,0.46-0.17,0.63-0.32s0.3-0.4,0.41-0.75c0.11-0.35,0.16-0.82,0.16-1.42c0-0.6-0.05-1.06-0.16-1.38
		c-0.11-0.32-0.25-0.57-0.44-0.75c-0.19-0.18-0.43-0.3-0.72-0.36c-0.22-0.05-0.65-0.07-1.28-0.07H434.98z"/>
</g>
<g class="st4">
	<path d="M466.79,86.71l1.51,0.48c-0.23,0.84-0.62,1.47-1.16,1.88c-0.54,0.41-1.22,0.61-2.05,0.61c-1.03,0-1.87-0.35-2.53-1.05
		s-0.99-1.66-0.99-2.88c0-1.29,0.33-2.29,1-3c0.67-0.71,1.54-1.07,2.62-1.07c0.95,0,1.71,0.28,2.31,0.84
		c0.35,0.33,0.62,0.81,0.79,1.42l-1.55,0.37c-0.09-0.4-0.28-0.72-0.57-0.95c-0.29-0.23-0.64-0.35-1.06-0.35
		c-0.57,0-1.04,0.21-1.4,0.62c-0.36,0.41-0.54,1.08-0.54,2c0,0.98,0.18,1.67,0.53,2.09c0.35,0.42,0.81,0.62,1.37,0.62
		c0.42,0,0.77-0.13,1.07-0.4S466.66,87.28,466.79,86.71z"/>
	<path d="M469.65,89.55v-7.74h2.51c0.95,0,1.57,0.04,1.86,0.12c0.44,0.12,0.81,0.37,1.11,0.76s0.45,0.89,0.45,1.51
		c0,0.48-0.09,0.87-0.26,1.2c-0.17,0.32-0.39,0.58-0.66,0.76s-0.54,0.31-0.81,0.37c-0.37,0.07-0.91,0.11-1.62,0.11h-1.02v2.92
		H469.65z M471.21,83.13v2.2h0.85c0.62,0,1.03-0.04,1.23-0.12c0.21-0.08,0.37-0.21,0.49-0.38s0.18-0.37,0.18-0.6
		c0-0.28-0.08-0.51-0.25-0.7s-0.38-0.3-0.63-0.34c-0.19-0.04-0.56-0.05-1.12-0.05H471.21z"/>
	<path d="M476.84,81.82h1.56v4.19c0,0.67,0.02,1.1,0.06,1.29c0.07,0.32,0.23,0.57,0.48,0.76c0.25,0.19,0.6,0.29,1.03,0.29
		c0.44,0,0.78-0.09,1-0.27c0.23-0.18,0.36-0.4,0.41-0.67s0.07-0.7,0.07-1.31v-4.28h1.56v4.06c0,0.93-0.04,1.58-0.13,1.97
		c-0.08,0.38-0.24,0.71-0.47,0.97s-0.53,0.47-0.91,0.63c-0.38,0.16-0.88,0.23-1.49,0.23c-0.74,0-1.3-0.08-1.68-0.26
		s-0.68-0.39-0.91-0.67c-0.22-0.27-0.37-0.56-0.44-0.86c-0.1-0.44-0.15-1.1-0.15-1.96V81.82z"/>
</g>
<rect x="44.79" y="17.51" class="st3" width="16.01" height="16.01"/>
<rect x="44.79" y="89.55" class="st3" width="16.01" height="16.01"/>
<rect x="44.79" y="41.52" class="st3" width="16.01" height="16.01"/>
<rect x="44.79" y="65.54" class="st3" width="16.01" height="16.01"/>
<rect x="44.79" y="113.57" class="st3" width="16.01" height="16.01"/>
<rect x="44.79" y="137.59" class="st3" width="16.01" height="16.01"/>
<g class="st4">
	<path d="M14.93,53.53V45.8h1.56v7.74H14.93z"/>
	<path d="M17.66,49.71c0-0.79,0.12-1.45,0.35-1.98c0.18-0.39,0.42-0.75,0.72-1.06c0.3-0.31,0.64-0.54,1-0.7
		c0.48-0.2,1.04-0.31,1.67-0.31c1.14,0,2.05,0.35,2.74,1.06s1.03,1.69,1.03,2.95c0,1.25-0.34,2.23-1.02,2.93
		c-0.68,0.71-1.59,1.06-2.72,1.06c-1.15,0-2.06-0.35-2.74-1.05C18,51.91,17.66,50.94,17.66,49.71z M19.27,49.66
		c0,0.88,0.2,1.54,0.61,1.99c0.4,0.45,0.92,0.68,1.54,0.68s1.13-0.22,1.53-0.67c0.4-0.45,0.6-1.12,0.6-2.02
		c0-0.89-0.19-1.55-0.58-1.98c-0.39-0.44-0.9-0.65-1.55-0.65c-0.64,0-1.16,0.22-1.56,0.66C19.47,48.1,19.27,48.77,19.27,49.66z"/>
	<path d="M32.85,53.53h-1.48v-5.59c-0.54,0.51-1.18,0.88-1.92,1.12v-1.35c0.39-0.13,0.81-0.37,1.26-0.72
		c0.45-0.35,0.77-0.77,0.93-1.24h1.2V53.53z"/>
</g>
<g class="st4">
	<path d="M14.93,77.55v-7.74h1.56v7.74H14.93z"/>
	<path d="M17.66,73.73c0-0.79,0.12-1.45,0.35-1.98c0.18-0.39,0.42-0.75,0.72-1.06c0.3-0.31,0.64-0.54,1-0.7
		c0.48-0.2,1.04-0.31,1.67-0.31c1.14,0,2.05,0.35,2.74,1.06s1.03,1.69,1.03,2.95c0,1.25-0.34,2.23-1.02,2.93
		c-0.68,0.71-1.59,1.06-2.72,1.06c-1.15,0-2.06-0.35-2.74-1.05C18,75.93,17.66,74.96,17.66,73.73z M19.27,73.67
		c0,0.88,0.2,1.54,0.61,1.99c0.4,0.45,0.92,0.68,1.54,0.68s1.13-0.22,1.53-0.67c0.4-0.45,0.6-1.12,0.6-2.02
		c0-0.89-0.19-1.55-0.58-1.98c-0.39-0.44-0.9-0.65-1.55-0.65c-0.64,0-1.16,0.22-1.56,0.66C19.47,72.12,19.27,72.78,19.27,73.67z"/>
	<path d="M34.07,76.17v1.38h-5.2c0.06-0.52,0.23-1.01,0.51-1.48c0.28-0.47,0.84-1.08,1.67-1.85c0.67-0.62,1.08-1.04,1.23-1.27
		c0.2-0.31,0.31-0.61,0.31-0.91c0-0.33-0.09-0.58-0.27-0.76c-0.18-0.18-0.42-0.27-0.74-0.27c-0.31,0-0.56,0.09-0.74,0.28
		s-0.29,0.5-0.32,0.93l-1.48-0.15c0.09-0.82,0.36-1.4,0.83-1.76s1.04-0.53,1.74-0.53c0.76,0,1.36,0.21,1.8,0.62
		c0.44,0.41,0.65,0.92,0.65,1.54c0,0.35-0.06,0.68-0.19,0.99c-0.12,0.31-0.32,0.64-0.59,0.99c-0.18,0.23-0.5,0.56-0.97,0.99
		s-0.76,0.71-0.89,0.85c-0.12,0.14-0.23,0.28-0.3,0.41H34.07z"/>
</g>
<g class="st4">
	<path d="M14.93,101.56v-7.74h1.56v7.74H14.93z"/>
	<path d="M17.66,97.74c0-0.79,0.12-1.45,0.35-1.98c0.18-0.39,0.42-0.75,0.72-1.06c0.3-0.31,0.64-0.54,1-0.7
		c0.48-0.2,1.04-0.31,1.67-0.31c1.14,0,2.05,0.35,2.74,1.06s1.03,1.69,1.03,2.95c0,1.25-0.34,2.23-1.02,2.93
		c-0.68,0.71-1.59,1.06-2.72,1.06c-1.15,0-2.06-0.35-2.74-1.05C18,99.94,17.66,98.97,17.66,97.74z M19.27,97.69
		c0,0.88,0.2,1.54,0.61,1.99c0.4,0.45,0.92,0.68,1.54,0.68s1.13-0.22,1.53-0.67c0.4-0.45,0.6-1.12,0.6-2.02
		c0-0.89-0.19-1.55-0.58-1.98c-0.39-0.44-0.9-0.65-1.55-0.65c-0.64,0-1.16,0.22-1.56,0.66S19.27,96.8,19.27,97.69z"/>
	<path d="M29.01,99.51l1.44-0.17c0.05,0.37,0.17,0.65,0.37,0.84s0.44,0.29,0.73,0.29c0.31,0,0.56-0.12,0.77-0.35
		c0.21-0.23,0.31-0.54,0.31-0.94c0-0.37-0.1-0.67-0.3-0.89c-0.2-0.22-0.45-0.33-0.73-0.33c-0.19,0-0.42,0.04-0.68,0.11l0.16-1.21
		c0.4,0.01,0.71-0.08,0.92-0.26c0.21-0.19,0.32-0.43,0.32-0.74c0-0.26-0.08-0.47-0.23-0.62c-0.15-0.15-0.36-0.23-0.62-0.23
		c-0.25,0-0.47,0.09-0.65,0.26c-0.18,0.18-0.29,0.43-0.33,0.77l-1.37-0.23c0.1-0.47,0.24-0.84,0.43-1.12
		c0.19-0.28,0.46-0.5,0.8-0.66c0.34-0.16,0.73-0.24,1.15-0.24c0.73,0,1.31,0.23,1.75,0.7c0.36,0.38,0.54,0.81,0.54,1.29
		c0,0.68-0.37,1.22-1.11,1.62c0.44,0.09,0.8,0.31,1.06,0.64s0.4,0.73,0.4,1.2c0,0.68-0.25,1.26-0.74,1.74s-1.11,0.72-1.85,0.72
		c-0.7,0-1.28-0.2-1.74-0.6C29.35,100.69,29.08,100.16,29.01,99.51z"/>
</g>
<g class="st4">
	<path d="M14.93,125.58v-7.74h1.56v7.74H14.93z"/>
	<path d="M17.66,121.76c0-0.79,0.12-1.45,0.35-1.98c0.18-0.39,0.42-0.75,0.72-1.06c0.3-0.31,0.64-0.54,1-0.7
		c0.48-0.2,1.04-0.31,1.67-0.31c1.14,0,2.05,0.35,2.74,1.06s1.03,1.69,1.03,2.95c0,1.25-0.34,2.23-1.02,2.93
		c-0.68,0.71-1.59,1.06-2.72,1.06c-1.15,0-2.06-0.35-2.74-1.05C18,123.95,17.66,122.99,17.66,121.76z M19.27,121.7
		c0,0.88,0.2,1.54,0.61,1.99c0.4,0.45,0.92,0.68,1.54,0.68s1.13-0.22,1.53-0.67c0.4-0.45,0.6-1.12,0.6-2.02
		c0-0.89-0.19-1.55-0.58-1.98c-0.39-0.44-0.9-0.65-1.55-0.65c-0.64,0-1.16,0.22-1.56,0.66S19.27,120.81,19.27,121.7z"/>
	<path d="M31.97,125.58v-1.56H28.8v-1.3l3.36-4.91h1.25v4.91h0.96v1.3H33.4v1.56H31.97z M31.97,122.72v-2.64l-1.78,2.64H31.97z"/>
</g>
<g class="st4">
	<path d="M53.93,29.52h-1.48v-5.59c-0.54,0.51-1.18,0.88-1.92,1.12v-1.35c0.39-0.13,0.81-0.37,1.26-0.72
		c0.45-0.35,0.77-0.77,0.93-1.24h1.2V29.52z"/>
</g>
<g class="st4">
	<path d="M55.15,52.15v1.38h-5.2c0.06-0.52,0.23-1.01,0.51-1.48c0.28-0.47,0.84-1.08,1.67-1.85c0.67-0.62,1.08-1.04,1.23-1.27
		c0.2-0.31,0.31-0.61,0.31-0.91c0-0.33-0.09-0.58-0.27-0.76c-0.18-0.18-0.42-0.27-0.74-0.27c-0.31,0-0.56,0.09-0.74,0.28
		s-0.29,0.5-0.32,0.93l-1.48-0.15c0.09-0.82,0.36-1.4,0.83-1.76s1.04-0.53,1.74-0.53c0.76,0,1.36,0.21,1.8,0.62
		c0.44,0.41,0.65,0.92,0.65,1.54c0,0.35-0.06,0.68-0.19,0.99c-0.12,0.31-0.32,0.64-0.59,0.99c-0.18,0.23-0.5,0.56-0.97,0.99
		s-0.76,0.71-0.89,0.85c-0.12,0.14-0.23,0.28-0.3,0.41H55.15z"/>
</g>
<g class="st4">
	<path d="M50.09,75.5l1.44-0.17c0.05,0.37,0.17,0.65,0.37,0.84s0.44,0.29,0.73,0.29c0.31,0,0.56-0.12,0.77-0.35
		c0.21-0.23,0.31-0.55,0.31-0.94c0-0.37-0.1-0.67-0.3-0.89c-0.2-0.22-0.45-0.33-0.73-0.33c-0.19,0-0.42,0.04-0.68,0.11l0.16-1.21
		c0.4,0.01,0.71-0.08,0.92-0.26s0.32-0.43,0.32-0.74c0-0.26-0.08-0.47-0.23-0.62S52.8,71,52.54,71c-0.25,0-0.47,0.09-0.65,0.26
		s-0.29,0.43-0.33,0.77L50.2,71.8c0.1-0.47,0.24-0.84,0.43-1.12c0.19-0.28,0.46-0.5,0.8-0.66c0.34-0.16,0.73-0.24,1.15-0.24
		c0.73,0,1.31,0.23,1.75,0.7c0.36,0.38,0.54,0.81,0.54,1.29c0,0.68-0.37,1.22-1.11,1.62c0.44,0.1,0.8,0.31,1.06,0.64
		s0.4,0.73,0.4,1.2c0,0.68-0.25,1.26-0.74,1.74c-0.5,0.48-1.11,0.72-1.85,0.72c-0.7,0-1.28-0.2-1.74-0.6
		C50.43,76.67,50.16,76.15,50.09,75.5z"/>
</g>
<g class="st4">
	<path d="M53.05,101.56V100h-3.17v-1.3l3.36-4.91h1.25v4.91h0.96v1.3h-0.96v1.56H53.05z M53.05,98.7v-2.64l-1.78,2.64H53.05z"/>
</g>
<g class="st4">
	<path d="M50.16,123.59l1.48-0.15c0.04,0.33,0.17,0.6,0.38,0.79c0.21,0.2,0.45,0.29,0.72,0.29c0.31,0,0.57-0.12,0.79-0.38
		c0.21-0.25,0.32-0.63,0.32-1.14c0-0.48-0.11-0.83-0.32-1.07c-0.21-0.24-0.49-0.36-0.83-0.36c-0.43,0-0.81,0.19-1.15,0.56l-1.2-0.17
		l0.76-4.03h3.92v1.39h-2.8l-0.23,1.31c0.33-0.17,0.67-0.25,1.01-0.25c0.66,0,1.22,0.24,1.67,0.72s0.69,1.1,0.69,1.86
		c0,0.64-0.18,1.2-0.55,1.7c-0.5,0.68-1.2,1.02-2.09,1.02c-0.71,0-1.3-0.19-1.75-0.58C50.52,124.75,50.25,124.24,50.16,123.59z"/>
</g>
<g class="st4">
	<path d="M55.16,143.75l-1.44,0.16c-0.04-0.3-0.13-0.51-0.27-0.65c-0.15-0.14-0.34-0.21-0.58-0.21c-0.31,0-0.58,0.14-0.79,0.42
		c-0.22,0.28-0.35,0.87-0.41,1.76c0.37-0.44,0.83-0.65,1.38-0.65c0.62,0,1.15,0.24,1.59,0.71s0.66,1.08,0.66,1.83
		c0,0.79-0.23,1.43-0.7,1.9s-1.06,0.72-1.79,0.72c-0.78,0-1.42-0.3-1.93-0.91c-0.5-0.61-0.75-1.6-0.75-2.98
		c0-1.42,0.26-2.44,0.79-3.07c0.52-0.63,1.21-0.94,2.04-0.94c0.59,0,1.07,0.17,1.46,0.49C54.81,142.65,55.06,143.12,55.16,143.75z
		 M51.8,146.99c0,0.48,0.11,0.85,0.33,1.12c0.22,0.26,0.48,0.39,0.76,0.39c0.27,0,0.5-0.11,0.69-0.32c0.18-0.21,0.27-0.57,0.27-1.05
		c0-0.5-0.1-0.87-0.3-1.11c-0.2-0.23-0.44-0.35-0.74-0.35c-0.29,0-0.53,0.11-0.72,0.34C51.9,146.22,51.8,146.55,51.8,146.99z"/>
</g>
<line class="st2" x1="381" y1="145.59" x2="364.99" y2="145.59"/>
<line class="st2" x1="369" y1="149.59" x2="360.99" y2="141.59"/>
<line class="st2" x1="360.99" y1="149.59" x2="369" y2="141.59"/>
<g>
	<line class="st2" x1="60.8" y1="25.51" x2="76.81" y2="25.51"/>
	<line class="st2" x1="72.81" y1="21.51" x2="80.82" y2="29.52"/>
	<line class="st2" x1="80.82" y1="21.51" x2="72.81" y2="29.52"/>
</g>
<g id="arrow">
	<path d="M358.27,25.51l1.68-2.8l-0.08-0.08l-4.56,1.84c-1.6,0.32-3.2,0.72-4.72,1.04c1.6,0.32,3.2,0.72,4.72,1.04l4.56,1.84
		l0.08-0.08L358.27,25.51z"/>
</g>
<g id="s_diod">
	<g>
		<path class="st2" d="M373,19.51v12.01l-7.6-6L373,19.51z"/>
		<polyline class="st2" points="360.99,31.92 364.99,31.92 364.99,19.11 369,19.11 		"/>
	</g>
</g>
<g class="st4">
	<path d="M403.8,27.53l1.48-0.15c0.04,0.33,0.17,0.6,0.37,0.79c0.21,0.2,0.45,0.29,0.72,0.29c0.31,0,0.57-0.13,0.79-0.38
		c0.21-0.25,0.32-0.63,0.32-1.14c0-0.48-0.11-0.83-0.32-1.07c-0.21-0.24-0.49-0.36-0.83-0.36c-0.43,0-0.81,0.19-1.15,0.56l-1.2-0.17
		l0.76-4.03h3.92v1.39h-2.8l-0.23,1.31c0.33-0.17,0.67-0.25,1.01-0.25c0.66,0,1.22,0.24,1.67,0.72c0.46,0.48,0.69,1.1,0.69,1.86
		c0,0.64-0.18,1.21-0.55,1.7c-0.5,0.68-1.2,1.02-2.09,1.02c-0.71,0-1.3-0.19-1.75-0.58C404.16,28.69,403.89,28.17,403.8,27.53z"/>
	<path d="M412.09,29.52l-2.76-7.74h1.69l1.96,5.73l1.89-5.73h1.66l-2.77,7.74H412.09z"/>
</g>
<g>
	<line class="st2" x1="60" y1="145.59" x2="76.01" y2="145.59"/>
	<line class="st1" x1="76.01" y1="153.6" x2="76.01" y2="137.59"/>
</g>
<path d="M373.32,72.74l-1.68-2.8l0.08-0.08l4.56,1.84c1.6,0.32,3.2,0.72,4.72,1.04c-1.6,0.32-3.2,0.72-4.72,1.04l-4.56,1.84
	l-0.08-0.08L373.32,72.74z"/>
<path d="M279.98,73.86l-0.08,0.08l-4.56-1.84c-1.6-0.32-3.2-0.72-4.72-1.04c1.6-0.32,3.2-0.72,4.72-1.04l4.56-1.84l0.08,0.08
	l-1.68,2.8L279.98,73.86z"/>
<path d="M279.98,121.9l-0.08,0.08l-4.56-1.84c-1.6-0.32-3.2-0.72-4.72-1.04c1.6-0.32,3.2-0.72,4.72-1.04l4.56-1.84l0.08,0.08
	l-1.68,2.8L279.98,121.9z"/>
<path d="M279.98,145.83l-0.08,0.08l-4.56-1.84c-1.6-0.32-3.2-0.72-4.72-1.04c1.6-0.32,3.2-0.72,4.72-1.04l4.56-1.84l0.08,0.08
	l-1.68,2.8L279.98,145.83z"/>
<g class="st4">
	<path d="M308,47.13V40.7h-2.29v-1.31h6.15v1.31h-2.29v6.43H308z"/>
	<path d="M312.07,47.13l2.64-4.04l-2.4-3.7h1.83l1.55,2.49l1.52-2.49h1.81l-2.41,3.76l2.64,3.98h-1.88l-1.71-2.68l-1.72,2.68H312.07
		z"/>
</g>
<g class="st4">
	<path d="M70.54,44.28l1.51,0.48c-0.23,0.84-0.62,1.47-1.16,1.88c-0.54,0.41-1.23,0.61-2.06,0.61c-1.03,0-1.87-0.35-2.53-1.05
		c-0.66-0.7-0.99-1.66-0.99-2.88c0-1.29,0.33-2.29,1-3c0.66-0.71,1.54-1.07,2.62-1.07c0.95,0,1.71,0.28,2.31,0.84
		c0.35,0.33,0.62,0.81,0.79,1.42l-1.55,0.37c-0.09-0.4-0.28-0.72-0.57-0.95c-0.29-0.23-0.64-0.35-1.06-0.35
		c-0.57,0-1.04,0.21-1.4,0.62c-0.36,0.41-0.54,1.08-0.54,2c0,0.98,0.18,1.67,0.53,2.09s0.81,0.62,1.37,0.62
		c0.42,0,0.77-0.13,1.07-0.4C70.2,45.27,70.41,44.85,70.54,44.28z"/>
	<path d="M73.4,47.13v-7.74h1.56v3.04h3.06v-3.04h1.56v7.74h-1.56v-3.38h-3.06v3.38H73.4z"/>
	<path d="M84.67,47.13h-1.48v-5.59c-0.54,0.51-1.18,0.88-1.92,1.12v-1.35c0.39-0.13,0.81-0.37,1.26-0.72
		c0.45-0.35,0.77-0.77,0.93-1.24h1.2V47.13z"/>
</g>
<g class="st4">
	<path d="M306.26,71.14v-7.74h3.29c0.83,0,1.43,0.07,1.8,0.21c0.38,0.14,0.67,0.39,0.9,0.74c0.23,0.36,0.34,0.76,0.34,1.22
		c0,0.58-0.17,1.06-0.51,1.44c-0.34,0.38-0.85,0.62-1.53,0.71c0.34,0.2,0.62,0.41,0.84,0.65c0.22,0.24,0.52,0.65,0.89,1.26
		l0.94,1.51h-1.87l-1.13-1.68c-0.4-0.6-0.68-0.98-0.82-1.14c-0.15-0.16-0.3-0.26-0.47-0.32c-0.17-0.06-0.43-0.09-0.79-0.09h-0.32
		v3.23H306.26z M307.82,66.68h1.16c0.75,0,1.22-0.03,1.4-0.09c0.19-0.06,0.33-0.17,0.44-0.33s0.16-0.35,0.16-0.58
		c0-0.26-0.07-0.47-0.21-0.63c-0.14-0.16-0.33-0.26-0.59-0.3c-0.13-0.02-0.51-0.03-1.14-0.03h-1.22V66.68z"/>
	<path d="M313.27,71.14l2.64-4.04l-2.4-3.7h1.83l1.55,2.49l1.52-2.49h1.81l-2.41,3.76l2.64,3.98h-1.88l-1.71-2.68l-1.72,2.68H313.27
		z"/>
</g>
<g class="st4">
	<path d="M306.26,95.16v-7.74h3.29c0.83,0,1.43,0.07,1.8,0.21s0.67,0.39,0.9,0.74c0.23,0.36,0.34,0.76,0.34,1.22
		c0,0.58-0.17,1.06-0.51,1.44s-0.85,0.62-1.53,0.71c0.34,0.2,0.62,0.41,0.84,0.65c0.22,0.24,0.52,0.65,0.89,1.26l0.94,1.51h-1.87
		l-1.13-1.68c-0.4-0.6-0.68-0.98-0.82-1.14s-0.3-0.26-0.47-0.32c-0.17-0.06-0.43-0.09-0.79-0.09h-0.32v3.23H306.26z M307.82,90.69
		h1.16c0.75,0,1.22-0.03,1.4-0.1c0.19-0.06,0.33-0.17,0.44-0.33c0.11-0.15,0.16-0.35,0.16-0.58c0-0.26-0.07-0.47-0.21-0.63
		c-0.14-0.16-0.33-0.26-0.59-0.3c-0.13-0.02-0.51-0.03-1.14-0.03h-1.22V90.69z"/>
	<path d="M315.8,95.16v-6.43h-2.29v-1.31h6.15v1.31h-2.29v6.43H315.8z"/>
	<path d="M320.26,92.64l1.52-0.15c0.09,0.51,0.28,0.88,0.56,1.12s0.66,0.36,1.13,0.36c0.5,0,0.88-0.11,1.14-0.32
		c0.25-0.21,0.38-0.46,0.38-0.75c0-0.18-0.05-0.34-0.16-0.47c-0.11-0.13-0.29-0.24-0.56-0.33c-0.18-0.06-0.6-0.18-1.25-0.34
		c-0.84-0.21-1.42-0.46-1.76-0.76c-0.48-0.43-0.71-0.95-0.71-1.56c0-0.39,0.11-0.76,0.33-1.11c0.22-0.34,0.55-0.6,0.97-0.78
		c0.42-0.18,0.93-0.27,1.52-0.27c0.97,0,1.7,0.21,2.19,0.64c0.49,0.43,0.75,0.99,0.77,1.71l-1.56,0.07
		c-0.07-0.4-0.21-0.68-0.43-0.86s-0.55-0.26-0.99-0.26c-0.45,0-0.81,0.09-1.07,0.28c-0.17,0.12-0.25,0.28-0.25,0.48
		c0,0.18,0.08,0.34,0.23,0.47c0.2,0.17,0.68,0.34,1.44,0.52s1.32,0.37,1.69,0.56s0.65,0.45,0.86,0.79c0.21,0.33,0.31,0.74,0.31,1.23
		c0,0.44-0.12,0.86-0.37,1.25c-0.25,0.39-0.59,0.67-1.04,0.86c-0.45,0.19-1.01,0.28-1.68,0.28c-0.98,0-1.73-0.23-2.25-0.68
		C320.68,94.16,320.37,93.51,320.26,92.64z"/>
</g>
<g>
	<path d="M306.23,119.17v-7.74h2.34l1.4,5.28l1.39-5.28h2.34v7.74h-1.45v-6.09l-1.54,6.09h-1.5l-1.53-6.09v6.09H306.23z"/>
	<path d="M320.21,116.33l1.51,0.48c-0.23,0.84-0.62,1.47-1.16,1.88c-0.54,0.41-1.22,0.61-2.05,0.61c-1.03,0-1.87-0.35-2.53-1.05
		s-0.99-1.66-0.99-2.88c0-1.29,0.33-2.29,1-3c0.67-0.71,1.54-1.07,2.62-1.07c0.95,0,1.71,0.28,2.31,0.84
		c0.35,0.33,0.62,0.81,0.79,1.42l-1.55,0.37c-0.09-0.4-0.28-0.72-0.57-0.95s-0.64-0.35-1.06-0.35c-0.57,0-1.04,0.21-1.4,0.62
		c-0.36,0.41-0.54,1.08-0.54,2c0,0.98,0.18,1.67,0.53,2.09c0.35,0.42,0.81,0.62,1.37,0.62c0.42,0,0.77-0.13,1.07-0.4
		S320.08,116.9,320.21,116.33z"/>
	<path d="M323.1,119.17v-7.67h1.56v6.37h3.88v1.3H323.1z"/>
	<path d="M329.67,119.17v-7.74h3.29c0.83,0,1.43,0.07,1.8,0.21s0.67,0.39,0.9,0.74c0.23,0.36,0.34,0.76,0.34,1.22
		c0,0.58-0.17,1.06-0.51,1.44s-0.85,0.62-1.53,0.71c0.34,0.2,0.62,0.41,0.84,0.65c0.22,0.24,0.52,0.65,0.89,1.26l0.94,1.51h-1.87
		l-1.13-1.68c-0.4-0.6-0.68-0.98-0.82-1.14s-0.3-0.26-0.47-0.32c-0.17-0.06-0.43-0.09-0.79-0.09h-0.32v3.23H329.67z M331.23,114.71
		h1.16c0.75,0,1.22-0.03,1.4-0.1c0.19-0.06,0.33-0.17,0.44-0.33c0.11-0.15,0.16-0.35,0.16-0.58c0-0.26-0.07-0.47-0.21-0.63
		c-0.14-0.16-0.33-0.26-0.59-0.3c-0.13-0.02-0.51-0.03-1.14-0.03h-1.22V114.71z"/>
</g>
<g class="st4">
	<path d="M70.54,68.3l1.51,0.48c-0.23,0.84-0.62,1.47-1.16,1.88c-0.54,0.41-1.23,0.61-2.06,0.61c-1.03,0-1.87-0.35-2.53-1.05
		c-0.66-0.7-0.99-1.66-0.99-2.88c0-1.29,0.33-2.29,1-3c0.66-0.71,1.54-1.07,2.62-1.07c0.95,0,1.71,0.28,2.31,0.84
		c0.35,0.33,0.62,0.81,0.79,1.42l-1.55,0.37c-0.09-0.4-0.28-0.72-0.57-0.95c-0.29-0.23-0.64-0.35-1.06-0.35
		c-0.57,0-1.04,0.21-1.4,0.62c-0.36,0.41-0.54,1.08-0.54,2c0,0.98,0.18,1.67,0.53,2.09s0.81,0.62,1.37,0.62
		c0.42,0,0.77-0.13,1.07-0.4C70.2,69.28,70.41,68.87,70.54,68.3z"/>
	<path d="M73.4,71.14v-7.74h1.56v3.04h3.06v-3.04h1.56v7.74h-1.56v-3.38h-3.06v3.38H73.4z"/>
	<path d="M85.88,69.77v1.38h-5.2c0.06-0.52,0.23-1.01,0.51-1.48c0.28-0.47,0.84-1.08,1.67-1.85c0.67-0.62,1.08-1.04,1.23-1.27
		c0.2-0.31,0.31-0.61,0.31-0.91c0-0.33-0.09-0.58-0.27-0.76c-0.18-0.18-0.42-0.27-0.74-0.27c-0.31,0-0.56,0.09-0.74,0.28
		s-0.29,0.5-0.32,0.93l-1.48-0.15c0.09-0.82,0.36-1.4,0.83-1.76s1.04-0.53,1.74-0.53c0.76,0,1.36,0.21,1.8,0.62
		c0.44,0.41,0.65,0.92,0.65,1.54c0,0.35-0.06,0.68-0.19,0.99c-0.12,0.31-0.32,0.64-0.59,0.99c-0.18,0.23-0.5,0.56-0.97,0.99
		s-0.76,0.71-0.89,0.85c-0.12,0.14-0.23,0.28-0.3,0.41H85.88z"/>
</g>
<g class="st4">
	<path d="M70.54,92.31l1.51,0.48c-0.23,0.84-0.62,1.47-1.16,1.88c-0.54,0.41-1.23,0.61-2.06,0.61c-1.03,0-1.87-0.35-2.53-1.05
		c-0.66-0.7-0.99-1.66-0.99-2.88c0-1.29,0.33-2.29,1-3c0.66-0.71,1.54-1.07,2.62-1.07c0.95,0,1.71,0.28,2.31,0.84
		c0.35,0.33,0.62,0.81,0.79,1.42l-1.55,0.37c-0.09-0.4-0.28-0.72-0.57-0.95c-0.29-0.23-0.64-0.35-1.06-0.35
		c-0.57,0-1.04,0.21-1.4,0.62c-0.36,0.41-0.54,1.08-0.54,2c0,0.98,0.18,1.67,0.53,2.09c0.35,0.42,0.81,0.62,1.37,0.62
		c0.42,0,0.77-0.13,1.07-0.4C70.2,93.29,70.41,92.88,70.54,92.31z"/>
	<path d="M73.4,95.16v-7.74h1.56v3.04h3.06v-3.04h1.56v7.74h-1.56v-3.38h-3.06v3.38H73.4z"/>
	<path d="M80.82,93.1l1.44-0.17c0.05,0.37,0.17,0.65,0.37,0.84s0.44,0.29,0.73,0.29c0.31,0,0.56-0.12,0.77-0.35
		c0.21-0.23,0.31-0.54,0.31-0.94c0-0.37-0.1-0.67-0.3-0.89c-0.2-0.22-0.45-0.33-0.73-0.33c-0.19,0-0.42,0.04-0.68,0.11l0.16-1.21
		c0.4,0.01,0.71-0.08,0.92-0.26c0.21-0.19,0.32-0.43,0.32-0.74c0-0.26-0.08-0.47-0.23-0.62c-0.15-0.15-0.36-0.23-0.62-0.23
		c-0.25,0-0.47,0.09-0.65,0.26c-0.18,0.18-0.29,0.43-0.33,0.77l-1.37-0.23c0.1-0.47,0.24-0.84,0.43-1.12
		c0.19-0.28,0.46-0.5,0.8-0.66c0.34-0.16,0.73-0.24,1.15-0.24c0.73,0,1.31,0.23,1.75,0.7c0.36,0.38,0.54,0.81,0.54,1.29
		c0,0.68-0.37,1.22-1.11,1.62c0.44,0.09,0.8,0.31,1.06,0.64s0.4,0.73,0.4,1.2c0,0.68-0.25,1.26-0.74,1.74s-1.11,0.72-1.85,0.72
		c-0.7,0-1.28-0.2-1.74-0.6C81.16,94.28,80.89,93.76,80.82,93.1z"/>
</g>
<g class="st4">
	<path d="M70.54,116.33l1.51,0.48c-0.23,0.84-0.62,1.47-1.16,1.88c-0.54,0.41-1.23,0.61-2.06,0.61c-1.03,0-1.87-0.35-2.53-1.05
		c-0.66-0.7-0.99-1.66-0.99-2.88c0-1.29,0.33-2.29,1-3c0.66-0.71,1.54-1.07,2.62-1.07c0.95,0,1.71,0.28,2.31,0.84
		c0.35,0.33,0.62,0.81,0.79,1.42l-1.55,0.37c-0.09-0.4-0.28-0.72-0.57-0.95c-0.29-0.23-0.64-0.35-1.06-0.35
		c-0.57,0-1.04,0.21-1.4,0.62c-0.36,0.41-0.54,1.08-0.54,2c0,0.98,0.18,1.67,0.53,2.09c0.35,0.42,0.81,0.62,1.37,0.62
		c0.42,0,0.77-0.13,1.07-0.4C70.2,117.31,70.41,116.9,70.54,116.33z"/>
	<path d="M73.4,119.17v-7.74h1.56v3.04h3.06v-3.04h1.56v7.74h-1.56v-3.38h-3.06v3.38H73.4z"/>
	<path d="M83.78,119.17v-1.56h-3.17v-1.3l3.36-4.91h1.25v4.91h0.96v1.3h-0.96v1.56H83.78z M83.78,116.31v-2.64L82,116.31H83.78z"/>
</g>
<rect x="127.64" y="62.34" class="st3" width="64.04" height="89.1"/>
<g class="st4">
	<path d="M203.64,139.71l1.52-0.15c0.09,0.51,0.28,0.88,0.56,1.12s0.66,0.36,1.13,0.36c0.5,0,0.88-0.11,1.14-0.32
		s0.38-0.46,0.38-0.75c0-0.18-0.05-0.34-0.16-0.47c-0.11-0.13-0.29-0.24-0.56-0.33c-0.18-0.06-0.6-0.18-1.25-0.34
		c-0.84-0.21-1.42-0.46-1.76-0.76c-0.47-0.43-0.71-0.95-0.71-1.56c0-0.39,0.11-0.76,0.34-1.11c0.22-0.34,0.54-0.6,0.97-0.78
		s0.93-0.27,1.52-0.27c0.97,0,1.7,0.21,2.19,0.64c0.49,0.43,0.75,0.99,0.77,1.71l-1.56,0.07c-0.07-0.4-0.21-0.68-0.43-0.86
		s-0.55-0.26-0.99-0.26c-0.45,0-0.81,0.09-1.07,0.28c-0.17,0.12-0.25,0.28-0.25,0.48c0,0.18,0.08,0.34,0.23,0.47
		c0.2,0.17,0.68,0.34,1.44,0.52s1.32,0.37,1.69,0.56c0.36,0.19,0.65,0.45,0.85,0.79c0.21,0.33,0.31,0.74,0.31,1.23
		c0,0.44-0.12,0.86-0.37,1.25s-0.59,0.67-1.04,0.86c-0.45,0.19-1.01,0.28-1.68,0.28c-0.98,0-1.73-0.23-2.25-0.68
		C204.06,141.24,203.75,140.58,203.64,139.71z"/>
	<path d="M211.25,142.23v-7.74h2.51c0.95,0,1.57,0.04,1.86,0.12c0.44,0.12,0.81,0.37,1.11,0.76c0.3,0.39,0.45,0.89,0.45,1.51
		c0,0.47-0.09,0.87-0.26,1.2c-0.17,0.32-0.39,0.58-0.66,0.76s-0.54,0.31-0.81,0.37c-0.37,0.07-0.91,0.11-1.62,0.11h-1.02v2.92
		H211.25z M212.81,135.8V138h0.85c0.62,0,1.03-0.04,1.23-0.12c0.21-0.08,0.37-0.21,0.49-0.38c0.12-0.17,0.18-0.37,0.18-0.6
		c0-0.28-0.08-0.51-0.25-0.7c-0.17-0.18-0.37-0.3-0.63-0.34c-0.19-0.04-0.56-0.05-1.12-0.05H212.81z"/>
	<path d="M218.41,142.23v-7.74h1.56v7.74H218.41z"/>
</g>
<g class="st4">
	<path d="M141.82,16.44v-2.01h-2.03v-1.39h2.03v-2.01h1.35v2.01h2.03v1.39h-2.03v2.01H141.82z"/>
	<path d="M149.91,17.55h-1.48v-5.59c-0.54,0.51-1.18,0.88-1.92,1.12v-1.35c0.39-0.13,0.81-0.37,1.26-0.72
		c0.45-0.35,0.77-0.77,0.93-1.24h1.2V17.55z"/>
	<path d="M155.03,17.55V16h-3.17v-1.3l3.36-4.91h1.25v4.91h0.96V16h-0.96v1.56H155.03z M155.03,14.69v-2.64l-1.78,2.64H155.03z"/>
	<path d="M160.43,17.55l-2.77-7.74h1.69l1.96,5.73l1.89-5.73h1.66l-2.77,7.74H160.43z"/>
</g>
<g class="st4">
	<path d="M142.66,39.46v-1.48h2.91v1.48H142.66z"/>
	<path d="M149.91,41.52h-1.48v-5.59c-0.54,0.51-1.18,0.88-1.92,1.12v-1.35c0.39-0.13,0.81-0.37,1.26-0.72
		c0.45-0.35,0.77-0.77,0.93-1.24h1.2V41.52z"/>
	<path d="M155.03,41.52v-1.56h-3.17v-1.3l3.36-4.91h1.25v4.91h0.96v1.3h-0.96v1.56H155.03z M155.03,38.66v-2.64l-1.78,2.64H155.03z"
		/>
	<path d="M160.43,41.52l-2.77-7.74h1.69l1.96,5.73l1.89-5.73h1.66l-2.77,7.74H160.43z"/>
</g>
<g>
	<g class="st4">
		<path d="M147.6,95.8h-1.7l-0.68-1.76h-3.09l-0.64,1.76h-1.66l3.01-7.74h1.65L147.6,95.8z M144.73,92.74l-1.07-2.87l-1.04,2.87
			H144.73z"/>
		<path d="M148.42,88.06h2.85c0.64,0,1.13,0.05,1.47,0.15c0.45,0.13,0.84,0.37,1.17,0.71c0.32,0.34,0.57,0.76,0.74,1.25
			s0.25,1.1,0.25,1.83c0,0.64-0.08,1.19-0.24,1.65c-0.19,0.56-0.47,1.02-0.83,1.37c-0.27,0.26-0.64,0.47-1.1,0.62
			c-0.34,0.11-0.81,0.16-1.38,0.16h-2.94V88.06z M149.99,89.37v5.12h1.17c0.44,0,0.75-0.02,0.94-0.07c0.25-0.06,0.46-0.17,0.63-0.32
			s0.3-0.4,0.41-0.75c0.11-0.35,0.16-0.82,0.16-1.42c0-0.6-0.05-1.06-0.16-1.38c-0.11-0.32-0.25-0.57-0.44-0.75s-0.43-0.3-0.72-0.36
			c-0.22-0.05-0.65-0.07-1.28-0.07H149.99z"/>
		<path d="M155.91,89.55v-1.38h5.07v1.08c-0.42,0.41-0.84,1-1.28,1.77c-0.43,0.77-0.76,1.59-0.99,2.46s-0.34,1.64-0.33,2.32h-1.43
			c0.02-1.07,0.25-2.16,0.66-3.27c0.42-1.11,0.97-2.11,1.67-2.98H155.91z"/>
		<path d="M161.86,93.75l1.44-0.17c0.05,0.37,0.17,0.65,0.37,0.84s0.44,0.29,0.73,0.29c0.31,0,0.56-0.12,0.77-0.35
			c0.21-0.23,0.31-0.54,0.31-0.94c0-0.37-0.1-0.67-0.3-0.89c-0.2-0.22-0.45-0.33-0.73-0.33c-0.19,0-0.42,0.04-0.68,0.11l0.16-1.21
			c0.4,0.01,0.71-0.08,0.92-0.26c0.21-0.19,0.32-0.43,0.32-0.74c0-0.26-0.08-0.47-0.23-0.62c-0.15-0.15-0.36-0.23-0.62-0.23
			c-0.25,0-0.47,0.09-0.65,0.26c-0.18,0.18-0.29,0.43-0.33,0.77l-1.37-0.23c0.1-0.47,0.24-0.84,0.43-1.12
			c0.19-0.28,0.46-0.5,0.8-0.66c0.34-0.16,0.73-0.24,1.15-0.24c0.73,0,1.31,0.23,1.75,0.7c0.36,0.38,0.54,0.81,0.54,1.29
			c0,0.68-0.37,1.22-1.11,1.62c0.44,0.09,0.8,0.31,1.06,0.64s0.4,0.73,0.4,1.2c0,0.68-0.25,1.26-0.74,1.74s-1.11,0.72-1.85,0.72
			c-0.7,0-1.28-0.2-1.74-0.6C162.21,94.92,161.94,94.4,161.86,93.75z"/>
		<path d="M172.94,94.42v1.38h-5.2c0.06-0.52,0.23-1.01,0.51-1.48c0.28-0.47,0.84-1.08,1.67-1.85c0.67-0.62,1.08-1.04,1.23-1.27
			c0.2-0.31,0.31-0.61,0.31-0.91c0-0.33-0.09-0.58-0.27-0.76c-0.18-0.18-0.42-0.27-0.74-0.27c-0.31,0-0.56,0.09-0.74,0.28
			s-0.29,0.5-0.32,0.93l-1.48-0.15c0.09-0.82,0.36-1.4,0.83-1.76s1.04-0.53,1.74-0.53c0.76,0,1.36,0.21,1.8,0.62
			c0.44,0.41,0.65,0.92,0.65,1.54c0,0.35-0.06,0.68-0.19,0.99c-0.12,0.32-0.32,0.64-0.59,0.99c-0.18,0.23-0.5,0.56-0.97,0.99
			c-0.47,0.43-0.76,0.71-0.89,0.85s-0.23,0.28-0.3,0.41H172.94z"/>
		<path d="M173.88,93.75l1.44-0.17c0.05,0.37,0.17,0.65,0.37,0.84s0.44,0.29,0.73,0.29c0.31,0,0.56-0.12,0.77-0.35
			c0.21-0.23,0.31-0.54,0.31-0.94c0-0.37-0.1-0.67-0.3-0.89c-0.2-0.22-0.45-0.33-0.73-0.33c-0.19,0-0.42,0.04-0.68,0.11l0.16-1.21
			c0.4,0.01,0.71-0.08,0.92-0.26c0.21-0.19,0.32-0.43,0.32-0.74c0-0.26-0.08-0.47-0.23-0.62c-0.15-0.15-0.36-0.23-0.62-0.23
			c-0.25,0-0.47,0.09-0.65,0.26c-0.18,0.18-0.29,0.43-0.33,0.77L174,90.05c0.1-0.47,0.24-0.84,0.43-1.12
			c0.19-0.28,0.46-0.5,0.8-0.66c0.34-0.16,0.73-0.24,1.15-0.24c0.73,0,1.31,0.23,1.75,0.7c0.36,0.38,0.54,0.81,0.54,1.29
			c0,0.68-0.37,1.22-1.11,1.62c0.44,0.09,0.8,0.31,1.06,0.64s0.4,0.73,0.4,1.2c0,0.68-0.25,1.26-0.74,1.74s-1.11,0.72-1.85,0.72
			c-0.7,0-1.28-0.2-1.74-0.6C174.23,94.92,173.96,94.4,173.88,93.75z"/>
	</g>
	<g class="st4">
		<path d="M137.21,109.44v-1.56h-3.17v-1.3l3.36-4.91h1.25v4.91h0.96v1.3h-0.96v1.56H137.21z M137.21,106.58v-2.64l-1.78,2.64
			H137.21z"/>
		<path d="M140.46,107.37v-1.48h2.91v1.48H140.46z"/>
		<path d="M149.19,106.59l1.51,0.48c-0.23,0.84-0.62,1.47-1.16,1.88c-0.54,0.41-1.23,0.61-2.06,0.61c-1.03,0-1.87-0.35-2.53-1.05
			c-0.66-0.7-0.99-1.66-0.99-2.88c0-1.29,0.33-2.29,1-3c0.66-0.71,1.54-1.07,2.62-1.07c0.95,0,1.71,0.28,2.31,0.84
			c0.35,0.33,0.62,0.81,0.79,1.42l-1.55,0.37c-0.09-0.4-0.28-0.72-0.57-0.95c-0.29-0.23-0.64-0.35-1.06-0.35
			c-0.57,0-1.04,0.21-1.4,0.62c-0.36,0.41-0.54,1.08-0.54,2c0,0.98,0.18,1.67,0.53,2.09c0.35,0.42,0.81,0.62,1.37,0.62
			c0.42,0,0.77-0.13,1.07-0.4C148.85,107.58,149.06,107.16,149.19,106.59z"/>
		<path d="M152.05,109.44v-7.74h1.56v3.04h3.06v-3.04h1.56v7.74h-1.56v-3.38h-3.06v3.38H152.05z"/>
		<path d="M169.43,109.44h-1.7l-0.68-1.76h-3.09l-0.64,1.76h-1.66l3.01-7.74h1.65L169.43,109.44z M166.55,106.38l-1.07-2.87
			l-1.04,2.87H166.55z"/>
		<path d="M170.25,101.7h2.85c0.64,0,1.13,0.05,1.47,0.15c0.45,0.13,0.84,0.37,1.17,0.71c0.32,0.34,0.57,0.76,0.74,1.25
			s0.25,1.1,0.25,1.83c0,0.64-0.08,1.19-0.24,1.65c-0.19,0.56-0.47,1.02-0.83,1.37c-0.27,0.26-0.64,0.47-1.1,0.62
			c-0.34,0.11-0.81,0.16-1.38,0.16h-2.94V101.7z M171.81,103.01v5.12h1.17c0.44,0,0.75-0.02,0.94-0.07
			c0.25-0.06,0.46-0.17,0.63-0.32s0.3-0.4,0.41-0.75c0.11-0.35,0.16-0.82,0.16-1.42c0-0.6-0.05-1.06-0.16-1.38
			c-0.11-0.32-0.25-0.57-0.44-0.75s-0.43-0.3-0.72-0.36c-0.22-0.05-0.65-0.07-1.28-0.07H171.81z"/>
		<path d="M183.01,106.59l1.51,0.48c-0.23,0.84-0.62,1.47-1.16,1.88c-0.54,0.41-1.23,0.61-2.06,0.61c-1.03,0-1.87-0.35-2.53-1.05
			c-0.66-0.7-0.99-1.66-0.99-2.88c0-1.29,0.33-2.29,1-3c0.66-0.71,1.54-1.07,2.62-1.07c0.95,0,1.71,0.28,2.31,0.84
			c0.35,0.33,0.62,0.81,0.79,1.42l-1.55,0.37c-0.09-0.4-0.28-0.72-0.57-0.95c-0.29-0.23-0.64-0.35-1.06-0.35
			c-0.57,0-1.04,0.21-1.4,0.62c-0.36,0.41-0.54,1.08-0.54,2c0,0.98,0.18,1.67,0.53,2.09c0.35,0.42,0.81,0.62,1.37,0.62
			c0.42,0,0.77-0.13,1.07-0.4C182.67,107.58,182.88,107.16,183.01,106.59z"/>
	</g>
	<g class="st4">
		<path d="M147.89,125.35h-1.02c-0.54-0.81-0.95-1.66-1.23-2.53c-0.28-0.88-0.42-1.72-0.42-2.54c0-1.02,0.17-1.98,0.52-2.89
			c0.3-0.79,0.69-1.51,1.15-2.18h1.01c-0.48,1.07-0.81,1.97-0.99,2.72s-0.27,1.54-0.27,2.38c0,0.58,0.05,1.17,0.16,1.77
			c0.11,0.6,0.25,1.18,0.44,1.73C147.37,124.16,147.58,124.68,147.89,125.35z"/>
		<path d="M148.65,120.56l1.52-0.15c0.09,0.51,0.28,0.88,0.56,1.12s0.66,0.36,1.13,0.36c0.5,0,0.88-0.11,1.14-0.32
			s0.38-0.46,0.38-0.75c0-0.18-0.05-0.34-0.16-0.47c-0.11-0.13-0.29-0.24-0.56-0.33c-0.18-0.06-0.6-0.18-1.25-0.34
			c-0.84-0.21-1.42-0.46-1.76-0.76c-0.47-0.43-0.71-0.95-0.71-1.56c0-0.39,0.11-0.76,0.34-1.11c0.22-0.34,0.54-0.6,0.97-0.78
			s0.93-0.27,1.52-0.27c0.97,0,1.7,0.21,2.19,0.64c0.49,0.43,0.75,0.99,0.77,1.71l-1.56,0.07c-0.07-0.4-0.21-0.68-0.43-0.86
			s-0.55-0.26-0.99-0.26c-0.45,0-0.81,0.09-1.07,0.28c-0.17,0.12-0.25,0.28-0.25,0.48c0,0.18,0.08,0.34,0.23,0.47
			c0.2,0.17,0.68,0.34,1.44,0.52s1.32,0.37,1.69,0.56c0.36,0.19,0.65,0.45,0.85,0.79c0.21,0.33,0.31,0.74,0.31,1.23
			c0,0.44-0.12,0.86-0.37,1.25s-0.59,0.67-1.04,0.86c-0.45,0.19-1.01,0.28-1.68,0.28c-0.98,0-1.73-0.23-2.25-0.68
			C149.06,122.08,148.75,121.42,148.65,120.56z"/>
		<path d="M163.23,123.07h-1.7l-0.68-1.76h-3.09l-0.64,1.76h-1.66l3.01-7.74h1.65L163.23,123.07z M160.35,120.01l-1.07-2.87
			l-1.04,2.87H160.35z"/>
		<path d="M164.06,123.07v-7.74h3.29c0.83,0,1.43,0.07,1.8,0.21s0.67,0.39,0.9,0.74s0.34,0.76,0.34,1.22c0,0.58-0.17,1.06-0.51,1.44
			s-0.85,0.62-1.53,0.71c0.34,0.2,0.62,0.41,0.84,0.65c0.22,0.24,0.52,0.65,0.89,1.26l0.94,1.51h-1.87l-1.13-1.68
			c-0.4-0.6-0.68-0.98-0.82-1.14c-0.15-0.16-0.3-0.26-0.47-0.32c-0.17-0.06-0.43-0.09-0.79-0.09h-0.32v3.23H164.06z M165.62,118.61
			h1.16c0.75,0,1.22-0.03,1.4-0.1c0.19-0.06,0.33-0.17,0.44-0.33c0.11-0.15,0.16-0.35,0.16-0.58c0-0.26-0.07-0.47-0.21-0.63
			c-0.14-0.16-0.33-0.26-0.59-0.3c-0.13-0.02-0.51-0.03-1.14-0.03h-1.22V118.61z"/>
		<path d="M171.44,125.35c0.29-0.63,0.5-1.11,0.62-1.44c0.12-0.33,0.23-0.72,0.33-1.16c0.1-0.44,0.18-0.85,0.23-1.24
			c0.05-0.39,0.07-0.79,0.07-1.21c0-0.84-0.09-1.63-0.27-2.38c-0.18-0.75-0.51-1.65-0.99-2.72h1.01c0.53,0.76,0.94,1.56,1.24,2.41
			c0.29,0.85,0.44,1.71,0.44,2.58c0,0.74-0.12,1.52-0.35,2.36c-0.26,0.94-0.7,1.87-1.3,2.79H171.44z"/>
	</g>
</g>
<rect x="223.39" y="62.34" class="st3" width="48.03" height="89.1"/>
<path class="st2" d="M140.61,19.11"/>
<path class="st2" d="M245.56-38.05"/>
<polyline class="st2" points="274.62,143.03 282.86,143.03 304.32,121.58 381,121.58 "/>
<polyline class="st2" points="274.62,119.09 282.86,119.09 304.32,97.56 381,97.56 "/>
<polyline class="st2" points="381,72.74 304.32,72.74 282.78,94.28 271.42,94.28 "/>
<polyline class="st2" points="381,49.53 304.32,49.53 282.78,71.06 274.62,71.06 "/>
<polyline class="st2" points="127.64,143.03 111.31,143.03 89.86,121.58 60.8,121.58 "/>
<polyline class="st2" points="127.64,119.09 111.31,119.09 89.86,97.56 60.8,97.56 "/>
<polyline class="st2" points="60.8,72.74 89.86,72.74 111.39,94.28 127.64,94.28 "/>
<polyline class="st2" points="60.8,49.53 89.86,49.53 111.39,71.06 127.64,71.06 "/>
<g class="st4">
	<path d="M251.65,136.39h-7.74v-2.51c0-0.95,0.04-1.57,0.12-1.86c0.12-0.44,0.37-0.81,0.76-1.11s0.89-0.45,1.51-0.45
		c0.48,0,0.87,0.09,1.2,0.26c0.32,0.17,0.58,0.39,0.76,0.66s0.31,0.54,0.37,0.81c0.07,0.37,0.11,0.91,0.11,1.62v1.02h2.92V136.39z
		 M245.23,134.82h2.2v-0.85c0-0.62-0.04-1.03-0.12-1.23c-0.08-0.21-0.21-0.37-0.38-0.49s-0.37-0.18-0.6-0.18
		c-0.28,0-0.51,0.08-0.7,0.25s-0.3,0.38-0.34,0.63c-0.04,0.19-0.05,0.56-0.05,1.12V134.82z"/>
	<path d="M251.65,129.23h-7.74v-1.56h7.74V129.23z"/>
	<path d="M248.81,121.23l0.48-1.51c0.84,0.23,1.47,0.62,1.88,1.16c0.41,0.54,0.61,1.22,0.61,2.05c0,1.03-0.35,1.87-1.05,2.53
		c-0.7,0.66-1.66,0.99-2.88,0.99c-1.29,0-2.29-0.33-3-1c-0.71-0.67-1.07-1.54-1.07-2.62c0-0.95,0.28-1.71,0.84-2.31
		c0.33-0.35,0.81-0.62,1.42-0.79l0.37,1.55c-0.4,0.09-0.72,0.28-0.95,0.57c-0.23,0.29-0.35,0.64-0.35,1.06
		c0,0.57,0.21,1.04,0.62,1.4c0.41,0.36,1.08,0.54,2,0.54c0.98,0,1.67-0.18,2.09-0.53c0.42-0.35,0.62-0.81,0.62-1.37
		c0-0.42-0.13-0.77-0.4-1.07C249.79,121.57,249.38,121.36,248.81,121.23z"/>
	<path d="M251.65,114.91v1.48h-5.59c0.51,0.54,0.88,1.18,1.12,1.92h-1.35c-0.13-0.39-0.37-0.81-0.72-1.26
		c-0.35-0.45-0.77-0.76-1.24-0.93v-1.2H251.65z"/>
	<path d="M245.81,107.67l0.16,1.44c-0.3,0.04-0.51,0.13-0.65,0.27c-0.14,0.15-0.21,0.34-0.21,0.58c0,0.31,0.14,0.58,0.42,0.79
		c0.28,0.22,0.87,0.35,1.76,0.41c-0.44-0.37-0.65-0.83-0.65-1.38c0-0.62,0.24-1.15,0.71-1.59c0.47-0.44,1.08-0.66,1.83-0.66
		c0.79,0,1.43,0.23,1.9,0.7c0.48,0.46,0.72,1.06,0.72,1.79c0,0.78-0.3,1.42-0.91,1.93s-1.6,0.75-2.98,0.75
		c-1.42,0-2.44-0.26-3.07-0.79s-0.94-1.21-0.94-2.04c0-0.59,0.16-1.07,0.49-1.46C244.71,108.02,245.19,107.77,245.81,107.67z
		 M249.05,111.03c0.48,0,0.85-0.11,1.12-0.33s0.39-0.47,0.39-0.76c0-0.27-0.11-0.5-0.32-0.69c-0.21-0.18-0.57-0.27-1.06-0.27
		c-0.5,0-0.87,0.1-1.11,0.29c-0.23,0.2-0.35,0.44-0.35,0.74c0,0.29,0.11,0.53,0.33,0.72C248.28,110.93,248.61,111.03,249.05,111.03z
		"/>
	<path d="M251.65,106.34h-7.74v-5.3h1.31v3.74h1.83v-3.23h1.31v3.23h3.29V106.34z"/>
	<path d="M251.65,96.28v1.48h-5.59c0.51,0.54,0.88,1.18,1.12,1.92h-1.35c-0.13-0.39-0.37-0.81-0.72-1.26
		c-0.35-0.45-0.77-0.76-1.24-0.93v-1.2H251.65z"/>
	<path d="M247.48,92.8c-0.16,0.38-0.38,0.66-0.67,0.84s-0.59,0.26-0.93,0.26c-0.58,0-1.05-0.2-1.43-0.6
		c-0.38-0.4-0.56-0.98-0.56-1.72c0-0.74,0.19-1.31,0.56-1.71s0.85-0.61,1.43-0.61c0.36,0,0.68,0.09,0.96,0.28s0.49,0.45,0.64,0.79
		c0.17-0.43,0.42-0.75,0.75-0.98s0.71-0.33,1.15-0.33c0.71,0,1.29,0.23,1.74,0.68c0.45,0.46,0.67,1.06,0.67,1.82
		c0,0.7-0.18,1.29-0.55,1.76c-0.44,0.55-1.03,0.83-1.79,0.83c-0.42,0-0.8-0.1-1.15-0.31C247.94,93.57,247.67,93.24,247.48,92.8z
		 M245.99,92.49c0.3,0,0.53-0.08,0.69-0.25c0.17-0.17,0.25-0.39,0.25-0.67c0-0.28-0.08-0.51-0.25-0.68
		c-0.17-0.17-0.4-0.25-0.69-0.25c-0.28,0-0.5,0.08-0.67,0.25s-0.25,0.39-0.25,0.66c0,0.29,0.08,0.51,0.25,0.68
		S245.71,92.49,245.99,92.49z M249.3,92.63c0.41,0,0.73-0.1,0.96-0.31c0.23-0.21,0.34-0.47,0.34-0.78c0-0.31-0.11-0.56-0.33-0.76
		c-0.22-0.2-0.54-0.3-0.95-0.3c-0.36,0-0.65,0.1-0.87,0.31s-0.33,0.46-0.33,0.78c0,0.36,0.12,0.63,0.37,0.81
		S249.01,92.63,249.3,92.63z"/>
	<path d="M250.28,83.05h1.38v5.2c-0.52-0.06-1.01-0.22-1.48-0.51c-0.47-0.28-1.08-0.84-1.85-1.67c-0.62-0.67-1.04-1.08-1.27-1.23
		c-0.31-0.2-0.61-0.31-0.91-0.31c-0.33,0-0.58,0.09-0.76,0.27c-0.18,0.18-0.27,0.42-0.27,0.74c0,0.31,0.09,0.56,0.28,0.74
		s0.5,0.29,0.93,0.32l-0.15,1.48c-0.82-0.09-1.4-0.36-1.76-0.83c-0.36-0.46-0.53-1.04-0.53-1.74c0-0.76,0.21-1.36,0.62-1.8
		c0.41-0.44,0.92-0.65,1.54-0.65c0.35,0,0.68,0.06,0.99,0.19c0.31,0.12,0.64,0.32,0.99,0.59c0.23,0.18,0.56,0.5,0.99,0.97
		s0.71,0.76,0.85,0.89c0.14,0.12,0.28,0.23,0.41,0.3V83.05z"/>
	<path d="M249.66,82.03l-0.15-1.48c0.33-0.04,0.6-0.17,0.79-0.38c0.2-0.21,0.29-0.45,0.29-0.72c0-0.31-0.13-0.57-0.38-0.79
		c-0.25-0.21-0.63-0.32-1.14-0.32c-0.48,0-0.83,0.11-1.07,0.32c-0.24,0.21-0.36,0.49-0.36,0.83c0,0.43,0.19,0.81,0.56,1.15
		l-0.17,1.2l-4.03-0.76v-3.92h1.39v2.8l1.31,0.23c-0.17-0.33-0.25-0.67-0.25-1.01c0-0.66,0.24-1.22,0.72-1.67
		c0.48-0.46,1.1-0.69,1.86-0.69c0.64,0,1.21,0.18,1.7,0.55c0.68,0.5,1.02,1.2,1.02,2.09c0,0.71-0.19,1.3-0.58,1.75
		C250.83,81.67,250.31,81.94,249.66,82.03z"/>
</g>
<g>
	<rect x="340.98" y="41.52" class="st3" width="16.01" height="16.01"/>
	<rect x="343.38" y="43.93" class="st5" width="11.21" height="11.21"/>
</g>
<g>
	<rect x="340.98" y="65.54" class="st3" width="16.01" height="16.01"/>
	<rect x="343.38" y="67.94" class="st6" width="11.21" height="11.21"/>
</g>
<g>
	<rect x="340.98" y="89.55" class="st3" width="16.01" height="16.01"/>
	<rect x="343.38" y="91.96" class="st5" width="11.21" height="11.21"/>
</g>
<g>
	<rect x="340.98" y="113.57" class="st3" width="16.01" height="16.01"/>
	<rect x="343.38" y="115.97" class="st5" width="11.21" height="11.21"/>
</g>
<rect x="168.71" y="11.59" class="st3" width="114.15" height="40.67"/>
<polyline class="st2" points="135.57,62.34 135.57,19.99 168.71,19.99 "/>
<polyline class="st2" points="144.3,62.34 144.3,43.85 168.71,43.85 "/>
<g class="st4">
	<path d="M195.73,27.7v-7.67h1.56v6.37h3.88v1.3H195.73z"/>
	<path d="M201.97,23.88c0-0.79,0.12-1.45,0.35-1.98c0.18-0.39,0.42-0.75,0.72-1.06c0.3-0.31,0.64-0.54,1-0.7
		c0.48-0.2,1.04-0.31,1.67-0.31c1.14,0,2.05,0.35,2.74,1.06s1.03,1.69,1.03,2.95c0,1.25-0.34,2.23-1.02,2.93
		c-0.68,0.71-1.59,1.06-2.72,1.06c-1.15,0-2.06-0.35-2.74-1.05C202.31,26.08,201.97,25.11,201.97,23.88z M203.58,23.83
		c0,0.88,0.2,1.54,0.61,1.99c0.4,0.45,0.92,0.68,1.54,0.68s1.13-0.22,1.53-0.67c0.4-0.45,0.6-1.12,0.6-2.02
		c0-0.89-0.19-1.55-0.58-1.98c-0.39-0.44-0.9-0.65-1.55-0.65c-0.64,0-1.16,0.22-1.56,0.66C203.77,22.27,203.58,22.94,203.58,23.83z"
		/>
	<path d="M211.79,27.7l-1.85-7.74h1.6l1.17,5.31l1.41-5.31h1.86l1.36,5.4l1.19-5.4h1.57l-1.88,7.74h-1.66l-1.54-5.78l-1.54,5.78
		H211.79z"/>
	<path d="M223.91,27.7v-7.74h1.52l3.17,5.17v-5.17h1.45v7.74h-1.57l-3.12-5.04v5.04H223.91z"/>
	<path d="M231.38,23.88c0-0.79,0.12-1.45,0.35-1.98c0.18-0.39,0.42-0.75,0.72-1.06c0.3-0.31,0.64-0.54,1-0.7
		c0.48-0.2,1.04-0.31,1.67-0.31c1.14,0,2.05,0.35,2.74,1.06s1.03,1.69,1.03,2.95c0,1.25-0.34,2.23-1.02,2.93
		c-0.68,0.71-1.59,1.06-2.72,1.06c-1.15,0-2.06-0.35-2.74-1.05C231.72,26.08,231.38,25.11,231.38,23.88z M232.99,23.83
		c0,0.88,0.2,1.54,0.61,1.99c0.4,0.45,0.92,0.68,1.54,0.68s1.13-0.22,1.53-0.67c0.4-0.45,0.6-1.12,0.6-2.02
		c0-0.89-0.19-1.55-0.58-1.98c-0.39-0.44-0.9-0.65-1.55-0.65c-0.64,0-1.16,0.22-1.56,0.66C233.19,22.27,232.99,22.94,232.99,23.83z"
		/>
	<path d="M240.06,27.7v-7.74h1.56v7.74H240.06z"/>
	<path d="M242.71,25.18l1.52-0.15c0.09,0.51,0.28,0.88,0.56,1.12c0.28,0.24,0.66,0.36,1.13,0.36c0.5,0,0.88-0.11,1.14-0.32
		c0.25-0.21,0.38-0.46,0.38-0.75c0-0.18-0.05-0.34-0.16-0.47s-0.29-0.24-0.56-0.33c-0.18-0.06-0.6-0.18-1.25-0.34
		c-0.84-0.21-1.42-0.46-1.76-0.77c-0.47-0.43-0.71-0.94-0.71-1.56c0-0.39,0.11-0.76,0.34-1.11c0.22-0.34,0.54-0.6,0.97-0.78
		c0.42-0.18,0.93-0.27,1.52-0.27c0.97,0,1.7,0.21,2.19,0.64c0.49,0.43,0.75,0.99,0.77,1.7l-1.56,0.07c-0.07-0.4-0.21-0.68-0.43-0.86
		c-0.22-0.17-0.55-0.26-0.99-0.26c-0.45,0-0.81,0.09-1.07,0.28c-0.17,0.12-0.25,0.28-0.25,0.48c0,0.18,0.08,0.34,0.23,0.47
		c0.2,0.17,0.68,0.34,1.44,0.52c0.76,0.18,1.32,0.36,1.69,0.56c0.36,0.19,0.65,0.45,0.85,0.79c0.21,0.33,0.31,0.74,0.31,1.23
		c0,0.44-0.12,0.86-0.37,1.25s-0.59,0.67-1.04,0.86c-0.45,0.19-1.01,0.28-1.68,0.28c-0.98,0-1.73-0.23-2.25-0.68
		C243.12,26.71,242.81,26.05,242.71,25.18z"/>
	<path d="M250.31,27.7v-7.74h5.74v1.31h-4.17v1.72h3.88v1.3h-3.88v2.11h4.32v1.3H250.31z"/>
</g>
<rect x="89.3" y="11.59" class="st3" width="23.86" height="139.77"/>
<g class="st4">
	<path d="M105.41,139.93v1.48h-5.59c0.51,0.54,0.88,1.18,1.12,1.92H99.6c-0.13-0.39-0.37-0.81-0.72-1.26
		c-0.35-0.45-0.77-0.76-1.24-0.93v-1.2H105.41z"/>
	<path d="M101.28,137.11H99.8v-1.48h1.48V137.11z M105.41,137.11h-1.48v-1.48h1.48V137.11z"/>
	<path d="M105.41,130.32v1.48h-5.59c0.51,0.54,0.88,1.18,1.12,1.92H99.6c-0.13-0.39-0.37-0.81-0.72-1.26
		c-0.35-0.45-0.77-0.76-1.24-0.93v-1.2H105.41z"/>
	<path d="M97.64,125.6c0-0.75,0.27-1.33,0.8-1.76c0.63-0.5,1.68-0.75,3.15-0.75c1.46,0,2.52,0.25,3.16,0.76
		c0.53,0.42,0.79,1,0.79,1.75c0,0.75-0.29,1.36-0.87,1.82c-0.58,0.46-1.61,0.69-3.09,0.69c-1.46,0-2.5-0.25-3.15-0.76
		C97.9,126.93,97.64,126.35,97.64,125.6z M98.87,125.6c0,0.18,0.06,0.34,0.17,0.48s0.32,0.25,0.61,0.33
		c0.38,0.1,1.03,0.15,1.94,0.15c0.91,0,1.53-0.05,1.87-0.14c0.34-0.09,0.57-0.21,0.68-0.35c0.11-0.14,0.17-0.3,0.17-0.48
		c0-0.18-0.06-0.34-0.17-0.48s-0.32-0.25-0.61-0.33c-0.38-0.1-1.02-0.15-1.93-0.15c-0.91,0-1.53,0.05-1.87,0.14
		c-0.34,0.09-0.57,0.21-0.68,0.35C98.93,125.26,98.87,125.42,98.87,125.6z"/>
	<path d="M105.41,118.76h-7.74v-3.29c0-0.83,0.07-1.43,0.21-1.8c0.14-0.38,0.39-0.67,0.74-0.9c0.36-0.23,0.76-0.34,1.22-0.34
		c0.58,0,1.06,0.17,1.44,0.51c0.38,0.34,0.62,0.85,0.71,1.53c0.2-0.34,0.41-0.62,0.65-0.84c0.24-0.22,0.65-0.52,1.26-0.89l1.51-0.94
		v1.87l-1.68,1.13c-0.6,0.4-0.98,0.68-1.14,0.82c-0.16,0.15-0.26,0.3-0.32,0.47c-0.06,0.17-0.09,0.43-0.09,0.79v0.32h3.23V118.76z
		 M100.94,117.2v-1.16c0-0.75-0.03-1.22-0.09-1.4c-0.06-0.19-0.17-0.33-0.33-0.44s-0.35-0.16-0.58-0.16c-0.26,0-0.47,0.07-0.63,0.21
		c-0.16,0.14-0.26,0.33-0.3,0.59c-0.02,0.13-0.03,0.51-0.03,1.14v1.22H100.94z"/>
	<path d="M105.41,110.96h-7.74v-5.74h1.31v4.17h1.72v-3.88h1.3v3.88h2.11v-4.32h1.3V110.96z"/>
	<path d="M102.89,104.15l-0.15-1.52c0.51-0.09,0.88-0.28,1.12-0.56c0.24-0.28,0.36-0.66,0.36-1.13c0-0.5-0.11-0.88-0.32-1.14
		c-0.21-0.25-0.46-0.38-0.75-0.38c-0.18,0-0.34,0.05-0.47,0.16c-0.13,0.11-0.24,0.29-0.33,0.56c-0.06,0.18-0.18,0.6-0.34,1.25
		c-0.21,0.84-0.46,1.42-0.77,1.76c-0.43,0.48-0.94,0.71-1.56,0.71c-0.39,0-0.76-0.11-1.11-0.33c-0.34-0.22-0.6-0.55-0.78-0.97
		c-0.18-0.42-0.27-0.93-0.27-1.52c0-0.97,0.21-1.7,0.64-2.19c0.43-0.49,0.99-0.75,1.7-0.77l0.07,1.56c-0.4,0.07-0.68,0.21-0.86,0.43
		c-0.17,0.22-0.26,0.55-0.26,0.99c0,0.45,0.09,0.81,0.28,1.07c0.12,0.17,0.28,0.25,0.48,0.25c0.18,0,0.34-0.08,0.47-0.23
		c0.17-0.2,0.34-0.68,0.52-1.44c0.18-0.76,0.36-1.32,0.56-1.69s0.45-0.65,0.79-0.86c0.33-0.21,0.74-0.31,1.23-0.31
		c0.44,0,0.86,0.12,1.25,0.37c0.39,0.25,0.67,0.59,0.86,1.04c0.19,0.45,0.28,1.01,0.28,1.68c0,0.98-0.23,1.73-0.68,2.25
		C104.41,103.73,103.75,104.05,102.89,104.15z"/>
	<path d="M105.41,96.56h-1.48v-1.48h1.48V96.56z"/>
	<path d="M105.41,83.97v1.7l-1.76,0.68v3.09l1.76,0.64v1.66l-7.74-3.01v-1.65L105.41,83.97z M102.35,86.84l-2.87,1.07l2.87,1.04
		V86.84z"/>
	<path d="M105.41,82.2h-6.43v2.3h-1.31v-6.15h1.31v2.29h6.43V82.2z"/>
	<path d="M105.41,75.6h-6.43v2.3h-1.31v-6.15h1.31v2.29h6.43V75.6z"/>
	<path d="M105.41,70.74h-7.74V65h1.31v4.17h1.72v-3.88h1.3v3.88h2.11v-4.32h1.3V70.74z"/>
	<path d="M105.41,63.51h-7.74v-1.52l5.17-3.17h-5.17v-1.45h7.74v1.57l-5.04,3.12h5.04V63.51z"/>
	<path d="M97.67,55.74v-1.56h4.19c0.66,0,1.1-0.02,1.29-0.06c0.32-0.07,0.57-0.23,0.76-0.48s0.29-0.6,0.29-1.03
		c0-0.44-0.09-0.78-0.27-1c-0.18-0.23-0.4-0.36-0.67-0.41c-0.26-0.05-0.7-0.07-1.31-0.07h-4.28v-1.56h4.06
		c0.93,0,1.58,0.04,1.97,0.13c0.38,0.08,0.71,0.24,0.97,0.47s0.47,0.53,0.63,0.91c0.16,0.38,0.23,0.88,0.23,1.49
		c0,0.74-0.09,1.3-0.26,1.68c-0.17,0.38-0.39,0.68-0.67,0.9c-0.27,0.22-0.56,0.37-0.86,0.44c-0.44,0.1-1.1,0.15-1.96,0.15H97.67z"/>
	<path d="M105.41,40.95v1.7l-1.76,0.68v3.09l1.76,0.64v1.66l-7.74-3.01v-1.65L105.41,40.95z M102.35,43.82l-2.87,1.07l2.87,1.04
		V43.82z"/>
	<path d="M105.41,39.18h-6.43v2.3h-1.31v-6.15h1.31v2.29h6.43V39.18z"/>
	<path d="M101.59,34.83c-0.79,0-1.45-0.12-1.98-0.35c-0.39-0.18-0.75-0.42-1.06-0.72c-0.31-0.3-0.54-0.64-0.7-1
		c-0.2-0.48-0.31-1.04-0.31-1.67c0-1.14,0.35-2.05,1.06-2.74s1.69-1.03,2.95-1.03c1.25,0,2.23,0.34,2.93,1.02
		c0.71,0.68,1.06,1.59,1.06,2.72c0,1.15-0.35,2.06-1.05,2.74C103.78,34.49,102.82,34.83,101.59,34.83z M101.53,33.22
		c0.88,0,1.54-0.2,1.99-0.61c0.45-0.4,0.68-0.92,0.68-1.54s-0.22-1.13-0.67-1.53c-0.45-0.4-1.12-0.6-2.02-0.6
		c-0.89,0-1.55,0.19-1.98,0.58c-0.44,0.39-0.65,0.9-0.65,1.55c0,0.64,0.22,1.16,0.66,1.56C99.98,33.02,100.64,33.22,101.53,33.22z"
		/>
	<path d="M105.41,26.1h-7.74v-3.29c0-0.83,0.07-1.43,0.21-1.8c0.14-0.37,0.39-0.67,0.74-0.9c0.36-0.23,0.76-0.34,1.22-0.34
		c0.58,0,1.06,0.17,1.44,0.51c0.38,0.34,0.62,0.85,0.71,1.53c0.2-0.34,0.41-0.62,0.65-0.84c0.24-0.22,0.65-0.52,1.26-0.89l1.51-0.94
		v1.87l-1.68,1.13c-0.6,0.4-0.98,0.68-1.14,0.82c-0.16,0.15-0.26,0.3-0.32,0.47c-0.06,0.17-0.09,0.43-0.09,0.79v0.32h3.23V26.1z
		 M100.94,24.54v-1.16c0-0.75-0.03-1.22-0.09-1.4s-0.17-0.33-0.33-0.44s-0.35-0.16-0.58-0.16c-0.26,0-0.47,0.07-0.63,0.21
		c-0.16,0.14-0.26,0.33-0.3,0.59c-0.02,0.13-0.03,0.51-0.03,1.14v1.22H100.94z"/>
</g>
<g class="st4">
	<path d="M173.76,36.19h2.85c0.64,0,1.13,0.05,1.47,0.15c0.45,0.13,0.84,0.37,1.17,0.71s0.57,0.76,0.74,1.25
		c0.17,0.49,0.25,1.1,0.25,1.83c0,0.64-0.08,1.19-0.24,1.65c-0.19,0.56-0.47,1.02-0.83,1.37c-0.27,0.26-0.64,0.47-1.1,0.62
		c-0.34,0.11-0.81,0.16-1.38,0.16h-2.94V36.19z M175.33,37.5v5.12h1.17c0.44,0,0.75-0.02,0.94-0.07c0.25-0.06,0.46-0.17,0.63-0.32
		c0.17-0.15,0.3-0.4,0.41-0.75c0.11-0.35,0.16-0.82,0.16-1.42c0-0.6-0.05-1.06-0.16-1.38s-0.25-0.57-0.44-0.75
		c-0.19-0.18-0.43-0.3-0.72-0.36c-0.22-0.05-0.65-0.07-1.28-0.07H175.33z"/>
	<path d="M186.52,41.08l1.51,0.48c-0.23,0.84-0.62,1.47-1.16,1.88c-0.54,0.41-1.23,0.61-2.06,0.61c-1.03,0-1.87-0.35-2.53-1.05
		c-0.66-0.7-0.99-1.66-0.99-2.88c0-1.29,0.33-2.29,1-3c0.66-0.71,1.54-1.07,2.62-1.07c0.95,0,1.71,0.28,2.31,0.84
		c0.35,0.33,0.62,0.81,0.79,1.42l-1.55,0.37c-0.09-0.4-0.28-0.72-0.57-0.95c-0.29-0.23-0.64-0.35-1.06-0.35
		c-0.57,0-1.04,0.21-1.4,0.62c-0.36,0.41-0.54,1.08-0.54,2c0,0.98,0.18,1.67,0.53,2.09s0.81,0.62,1.37,0.62
		c0.42,0,0.77-0.13,1.07-0.4C186.18,42.06,186.39,41.65,186.52,41.08z"/>
	<path d="M189.2,41.86v-1.48h2.91v1.48H189.2z"/>
	<path d="M192.97,36.19h2.85c0.64,0,1.13,0.05,1.47,0.15c0.45,0.13,0.84,0.37,1.17,0.71s0.57,0.76,0.74,1.25
		c0.17,0.49,0.25,1.1,0.25,1.83c0,0.64-0.08,1.19-0.24,1.65c-0.19,0.56-0.47,1.02-0.83,1.37c-0.27,0.26-0.64,0.47-1.1,0.62
		c-0.34,0.11-0.81,0.16-1.38,0.16h-2.94V36.19z M194.53,37.5v5.12h1.17c0.44,0,0.75-0.02,0.94-0.07c0.25-0.06,0.46-0.17,0.63-0.32
		c0.17-0.15,0.3-0.4,0.41-0.75c0.11-0.35,0.16-0.82,0.16-1.42c0-0.6-0.05-1.06-0.16-1.38s-0.25-0.57-0.44-0.75
		c-0.19-0.18-0.43-0.3-0.72-0.36c-0.22-0.05-0.65-0.07-1.28-0.07H194.53z"/>
	<path d="M205.73,41.08l1.51,0.48c-0.23,0.84-0.62,1.47-1.16,1.88c-0.54,0.41-1.23,0.61-2.06,0.61c-1.03,0-1.87-0.35-2.53-1.05
		c-0.66-0.7-0.99-1.66-0.99-2.88c0-1.29,0.33-2.29,1-3c0.66-0.71,1.54-1.07,2.62-1.07c0.95,0,1.71,0.28,2.31,0.84
		c0.35,0.33,0.62,0.81,0.79,1.42l-1.55,0.37c-0.09-0.4-0.28-0.72-0.57-0.95c-0.29-0.23-0.64-0.35-1.06-0.35
		c-0.57,0-1.04,0.21-1.4,0.62c-0.36,0.41-0.54,1.08-0.54,2c0,0.98,0.18,1.67,0.53,2.09s0.81,0.62,1.37,0.62
		c0.42,0,0.77-0.13,1.07-0.4C205.39,42.06,205.6,41.65,205.73,41.08z"/>
	<path d="M216.54,41.08l1.51,0.48c-0.23,0.84-0.62,1.47-1.16,1.88c-0.54,0.41-1.23,0.61-2.06,0.61c-1.03,0-1.87-0.35-2.53-1.05
		c-0.66-0.7-0.99-1.66-0.99-2.88c0-1.29,0.33-2.29,1-3c0.66-0.71,1.54-1.07,2.62-1.07c0.95,0,1.71,0.28,2.31,0.84
		c0.35,0.33,0.62,0.81,0.79,1.42l-1.55,0.37c-0.09-0.4-0.28-0.72-0.57-0.95c-0.29-0.23-0.64-0.35-1.06-0.35
		c-0.57,0-1.04,0.21-1.4,0.62c-0.36,0.41-0.54,1.08-0.54,2c0,0.98,0.18,1.67,0.53,2.09s0.81,0.62,1.37,0.62
		c0.42,0,0.77-0.13,1.07-0.4C216.19,42.06,216.41,41.65,216.54,41.08z"/>
	<path d="M219.08,40.11c0-0.79,0.12-1.45,0.35-1.98c0.18-0.39,0.42-0.75,0.72-1.06c0.3-0.31,0.64-0.54,1-0.7
		c0.48-0.2,1.04-0.31,1.67-0.31c1.14,0,2.05,0.35,2.74,1.06s1.03,1.69,1.03,2.95c0,1.25-0.34,2.23-1.02,2.93
		c-0.68,0.71-1.59,1.06-2.72,1.06c-1.15,0-2.06-0.35-2.74-1.05C219.41,42.3,219.08,41.34,219.08,40.11z M220.68,40.05
		c0,0.88,0.2,1.54,0.61,1.99c0.4,0.45,0.92,0.68,1.54,0.68s1.13-0.22,1.53-0.67c0.4-0.45,0.6-1.12,0.6-2.02
		c0-0.89-0.19-1.55-0.58-1.98c-0.39-0.44-0.9-0.65-1.55-0.65c-0.64,0-1.16,0.22-1.56,0.66C220.88,38.5,220.68,39.16,220.68,40.05z"
		/>
	<path d="M227.81,43.93v-7.74h1.52l3.17,5.17v-5.17h1.45v7.74h-1.57l-3.12-5.04v5.04H227.81z"/>
	<path d="M237.58,43.93l-2.77-7.74h1.69l1.96,5.73l1.89-5.73h1.66l-2.77,7.74H237.58z"/>
	<path d="M242.81,43.93v-7.74h5.74v1.31h-4.17v1.72h3.88v1.3h-3.88v2.11h4.32v1.3H242.81z"/>
	<path d="M250.02,43.93v-7.74h3.29c0.83,0,1.43,0.07,1.8,0.21c0.37,0.14,0.67,0.39,0.9,0.74c0.23,0.36,0.34,0.76,0.34,1.22
		c0,0.58-0.17,1.06-0.51,1.44c-0.34,0.38-0.85,0.62-1.53,0.71c0.34,0.2,0.62,0.41,0.84,0.65c0.22,0.24,0.52,0.65,0.89,1.26
		l0.94,1.51h-1.87l-1.13-1.68c-0.4-0.6-0.68-0.98-0.82-1.14c-0.15-0.16-0.3-0.26-0.47-0.32c-0.17-0.06-0.43-0.09-0.79-0.09h-0.32
		v3.23H250.02z M251.58,39.46h1.16c0.75,0,1.22-0.03,1.4-0.09s0.33-0.17,0.44-0.33s0.16-0.35,0.16-0.58c0-0.26-0.07-0.47-0.21-0.63
		c-0.14-0.16-0.33-0.26-0.59-0.3c-0.13-0.02-0.51-0.03-1.14-0.03h-1.22V39.46z"/>
	<path d="M259.56,43.93V37.5h-2.3v-1.31h6.15v1.31h-2.29v6.43H259.56z"/>
	<path d="M264.42,43.93v-7.74h5.74v1.31h-4.17v1.72h3.88v1.3h-3.88v2.11h4.32v1.3H264.42z"/>
	<path d="M271.64,43.93v-7.74h3.29c0.83,0,1.43,0.07,1.8,0.21c0.37,0.14,0.67,0.39,0.9,0.74c0.23,0.36,0.34,0.76,0.34,1.22
		c0,0.58-0.17,1.06-0.51,1.44c-0.34,0.38-0.85,0.62-1.53,0.71c0.34,0.2,0.62,0.41,0.84,0.65c0.22,0.24,0.52,0.65,0.89,1.26
		l0.94,1.51h-1.87l-1.13-1.68c-0.4-0.6-0.68-0.98-0.82-1.14c-0.15-0.16-0.3-0.26-0.47-0.32c-0.17-0.06-0.43-0.09-0.79-0.09h-0.32
		v3.23H271.64z M273.2,39.46h1.16c0.75,0,1.22-0.03,1.4-0.09s0.33-0.17,0.44-0.33s0.16-0.35,0.16-0.58c0-0.26-0.07-0.47-0.21-0.63
		c-0.14-0.16-0.33-0.26-0.59-0.3c-0.13-0.02-0.51-0.03-1.14-0.03h-1.22V39.46z"/>
</g>
<line class="st2" x1="356.99" y1="25.51" x2="282.86" y2="25.51"/>
<g>
	<line class="st2" x1="191.69" y1="80.51" x2="223.39" y2="80.51"/>
	<line class="st2" x1="191.69" y1="130.62" x2="223.39" y2="130.62"/>
</g>
<line class="st2" x1="217.78" y1="71.14" x2="197.29" y2="143.03"/>
<path class="st7" d="M-3.24-6.51"/>
<line class="st8" x1="306.2" y1="108.4" x2="336.3" y2="108.4"/>
<line class="st2" x1="356.99" y1="25.51" x2="364.27" y2="25.51"/>
<line class="st2" x1="373" y1="25.51" x2="380.32" y2="25.51"/>
</svg>
